<svg width="235" height="150" viewBox="0 0 235 150" fill="none" xmlns="http://www.w3.org/2000/svg">
<path d="M39.6902 50.2897H13.9949V78.9198H39.6902V50.2897Z" fill="#1D282E" stroke="#1D282E" stroke-linecap="round" stroke-linejoin="round"/>
<path d="M55.2839 82.559H29.5886V84.3786H55.2839V82.559Z" fill="#1D282E" stroke="#1D282E" stroke-linecap="round" stroke-linejoin="round"/>
<path d="M28.5605 70.9666H23.592V84.147H28.5605V70.9666Z" fill="#E8E8E8" stroke="#1D282E" stroke-linecap="round" stroke-linejoin="round"/>
<path d="M79.6117 86.9788H11.0859V147.448H79.6117V86.9788Z" fill="#E8E8E8" stroke="#1D282E" stroke-linecap="round" stroke-linejoin="round"/>
<path d="M12.2083 87.4153H9.89868V148.877H12.2083V87.4153Z" fill="#E8E8E8" stroke="#1D282E" stroke-linecap="round" stroke-linejoin="round"/>
<path d="M80.5443 87.4153H78.2346V148.877H80.5443V87.4153Z" fill="#E8E8E8" stroke="#1D282E" stroke-linecap="round" stroke-linejoin="round"/>
<path d="M83.7918 83.7499H7.96802V89.5262H83.7918V83.7499Z" fill="#E8E8E8" stroke="#1D282E" stroke-linecap="round" stroke-linejoin="round"/>
<path d="M118.047 27.8325C118.047 27.8325 115.293 30.1021 114.4 33.0663C113.507 36.0306 109.786 51.3481 108.818 53.3264C107.85 55.3048 107.85 58.3617 108.968 60.0423C110.085 61.7229 111.961 62.8014 113.507 60.8297C115.054 58.8579 115.503 54.9078 116.999 50.2431C118.496 45.5783 119.758 32.451 120.491 29.7845C120.937 28.1928 121.237 26.5355 121.384 24.8484L118.047 27.8325Z" fill="#EBFAFF" stroke="#1D282E" stroke-linecap="round" stroke-linejoin="round"/>
<path d="M140.528 66.3549C140.528 66.3549 140.972 74.2088 140.747 78.2053C140.523 82.2017 138.518 107.411 138.518 107.411L135.614 141.421H131.15L127.907 91.2665L123.557 141.275H118.978C118.978 141.275 116.299 109.78 115.516 102.237C115.047 97.5194 114.935 92.7515 115.182 88.0045C115.182 87.5612 114.184 77.4906 114.184 74.6786C114.199 72.7625 114.299 70.8492 114.483 68.9486L114.299 67.8635C114.299 67.8635 122.56 70.8277 128.266 69.0478C133.973 67.268 139.54 64.9058 139.54 64.9058L140.528 66.3549Z" fill="#1D282E" stroke="#1D282E" stroke-linecap="round" stroke-linejoin="round"/>
<path d="M135.616 141.42L136.953 147.494C137 147.59 137.031 147.698 137.045 147.811C137.059 147.923 137.056 148.038 137.036 148.149C137.015 148.26 136.978 148.364 136.926 148.455C136.874 148.546 136.809 148.622 136.734 148.679C136.175 149.122 129.92 148.679 129.92 148.679C129.743 148.558 129.603 148.361 129.522 148.121C129.442 147.88 129.425 147.61 129.476 147.355C129.585 146.317 131.152 141.4 131.152 141.4L135.616 141.42Z" stroke="#1D282E" stroke-linecap="round" stroke-linejoin="round"/>
<path d="M123.558 141.275L123.962 146.813C123.986 147.158 123.917 147.502 123.767 147.786V147.786C123.667 147.97 123.535 148.121 123.383 148.224C123.23 148.328 123.061 148.382 122.889 148.381H114.235C113.357 148.381 111.661 148.341 111.825 147.197C111.935 146.456 118.969 141.295 118.969 141.295L123.558 141.275Z" stroke="#1D282E" stroke-linecap="round" stroke-linejoin="round"/>
<path d="M127.908 91.2662L126.796 85.0201L122.775 81.3148" stroke="#DDB8B8" stroke-linecap="round" stroke-linejoin="round"/>
<path d="M116.485 35.4351V46.9811C116.485 47.6428 113.806 62.8611 113.581 64.3564C113.357 65.8518 113.581 67.2214 114.474 68.8954C115.367 70.5694 118.719 72.2567 126.012 73.0441C133.305 73.8314 138.743 70.2783 140.229 68.0088C141.716 65.7393 140.005 61.3922 139.486 55.2718C138.967 49.1514 138.813 29.7779 136.732 28.5207C134.652 27.2636 127.948 22.9958 127.948 22.9958C127.948 22.9958 124.152 22.9959 121.623 24.478C119.961 25.5341 118.489 27.0476 117.303 28.9177" fill="#EBFAFF"/>
<path d="M116.485 35.4351V46.9811C116.485 47.6428 113.806 62.8611 113.581 64.3564C113.357 65.8518 113.581 67.2214 114.474 68.8954C115.367 70.5694 118.719 72.2567 126.012 73.0441C133.305 73.8314 138.743 70.2783 140.229 68.0088C141.716 65.7393 140.005 61.3922 139.486 55.2718C138.967 49.1514 138.813 29.7779 136.732 28.5207C134.652 27.2636 127.948 22.9958 127.948 22.9958C127.948 22.9958 124.152 22.9959 121.623 24.478C119.961 25.5341 118.489 27.0476 117.303 28.9177" stroke="#1D282E" stroke-linecap="round" stroke-linejoin="round"/>
<path d="M127.499 21.0176C127.914 20.9716 128.33 21.0995 128.688 21.3831C129.046 21.6667 129.328 22.0919 129.494 22.599C130.018 24.3788 128.377 35.1375 128.377 35.1375C128.377 35.1375 124.73 31.6836 123.838 31.6836C122.945 31.6836 118.849 35.1375 118.849 35.1375C118.849 35.1375 120.191 27.7335 121.383 24.8685C122.575 22.0035 125.848 20.4287 127.19 20.8985L127.499 21.0176Z" fill="#EBFAFF" stroke="#1D282E" stroke-linecap="round" stroke-linejoin="round"/>
<path d="M127.798 20.0318C127.798 20.0318 128.098 21.0177 126.756 25.7618C125.414 30.5059 124.761 34.5487 123.927 33.4569C123.094 32.3652 122.142 26.6484 122.142 26.6484C122.142 26.6484 126.457 22.4998 127.798 20.0318Z" fill="#EBFAFF" stroke="#1D282E" stroke-linecap="round" stroke-linejoin="round"/>
<path d="M115.825 12.3826C116.203 15.1252 116.689 17.8396 117.282 20.5145C118.005 23.3993 118.938 27.667 121.427 28.6265C123.917 29.5859 124.645 27.1179 125.683 25.9798C126.72 24.8417 128.376 21.1629 128.376 19.3632C128.376 17.5634 128.272 13.5869 127.753 12.2106C127.234 10.8343 126.301 9.45808 123.607 8.76995C120.914 8.08182 118.419 8.66408 115.825 12.3826Z" fill="#EBFAFF" stroke="#1D282E" stroke-linecap="round" stroke-linejoin="round"/>
<path d="M127.548 16.0946C127.548 16.0946 125.992 16.9217 125.578 15.6844C125.164 14.4471 124.436 12.654 124.436 12.654C124.436 12.654 121.218 14.4471 119.253 14.5596C117.287 14.6721 115.102 13.051 114.793 11.2513C114.484 9.45154 115.621 5.47494 118.215 3.3113C120.809 1.14766 126.196 0.141938 127.858 3.58259C129.117 6.20635 129.734 9.28243 129.624 12.3893C129.624 14.725 129.519 16.3593 129.519 16.3593C129.224 16.1313 128.895 15.9897 128.555 15.9441C128.215 15.8984 127.872 15.9498 127.548 16.0946Z" fill="#1D282E" stroke="#1D282E" stroke-linecap="round" stroke-linejoin="round"/>
<path d="M126.926 17.0608C126.926 17.0608 127.858 13.8914 128.791 14.3083C129.724 14.7251 129.829 17.1998 129.29 18.7084C128.751 20.217 127.424 20.7727 127.115 20.5015" fill="#EBFAFF"/>
<path d="M126.926 17.0608C126.926 17.0608 127.858 13.8914 128.791 14.3083C129.724 14.7251 129.829 17.1998 129.29 18.7084C128.751 20.217 127.424 20.7727 127.115 20.5015" stroke="#1D282E" stroke-linecap="round" stroke-linejoin="round"/>
<path d="M119.953 18.7347C119.953 18.7347 123.704 18.384 124.497 18.523C125.29 18.6619 125.18 19.8463 124.971 21.1696C124.761 22.493 123.544 23.2737 122.118 22.923C120.691 22.5724 120.372 20.938 120.122 20.68C119.873 20.422 119.753 20.1176 119.439 20.3293C119.124 20.5411 119.174 22.0099 118.805 22.6385C118.436 23.2671 117.428 23.7634 116.311 22.9892C115.194 22.2151 115.253 19.9786 115.253 19.2045C115.253 18.4303 115.832 18.5031 116.097 18.5428C116.361 18.5825 119.953 18.7347 119.953 18.7347Z" stroke="#1D282E" stroke-linecap="round" stroke-linejoin="round"/>
<path d="M125.025 18.8075L127.35 15.6514" stroke="#1D282E" stroke-linecap="round" stroke-linejoin="round"/>
<path d="M115.512 18.5232L116.41 17.0543" stroke="#1D282E" stroke-linecap="round" stroke-linejoin="round"/>
<path d="M119.369 21.1165C119.369 21.1165 119.16 21.9569 119.05 22.6582C118.94 23.3596 119.369 24.7623 120.003 24.6432C120.636 24.5241 120.796 24.0808 120.796 24.0808" stroke="#1D282E" stroke-linecap="round" stroke-linejoin="round"/>
<path d="M123.712 17.7552C122.999 17.462 122.231 17.5112 121.542 17.8942" stroke="#1D282E" stroke-linecap="round" stroke-linejoin="round"/>
<path d="M118.84 18.0334C118.604 17.7754 118.31 17.6284 118.004 17.6153C117.698 17.6021 117.397 17.7235 117.149 17.9606" stroke="#1D282E" stroke-linecap="round" stroke-linejoin="round"/>
<path d="M134.573 27.3363C134.573 27.3363 137.776 28.6199 139.187 30.2013C140.599 31.7827 142.879 44.2021 143.547 50.124C144.216 56.0459 145.258 61.1671 144.365 61.8619C143.472 62.5566 129.51 60.135 129.51 60.135L129.066 57.2766L138.165 54.7623C138.165 54.7623 133.082 41.529 132.937 37.9031C132.802 35.9601 133.005 34.002 133.531 32.1797" fill="#EBFAFF"/>
<path d="M134.573 27.3363C134.573 27.3363 137.776 28.6199 139.187 30.2013C140.599 31.7827 142.879 44.2021 143.547 50.124C144.216 56.0459 145.258 61.1671 144.365 61.8619C143.472 62.5566 129.51 60.135 129.51 60.135L129.066 57.2766L138.165 54.7623C138.165 54.7623 133.082 41.529 132.937 37.9031C132.802 35.9601 133.005 34.002 133.531 32.1797" stroke="#1D282E" stroke-linecap="round" stroke-linejoin="round"/>
<path d="M119.687 50.4615L123.628 63.2978L116.933 66.5532L112.763 54.1139L119.687 50.4615Z" fill="#A6FF98" stroke="#1D282E" stroke-linecap="round" stroke-linejoin="round"/>
<path d="M112.763 54.1138L107.999 49.4756L112.239 62.5103L116.933 66.5531L112.763 54.1138Z" fill="#A6FF98" stroke="#1D282E" stroke-linecap="round" stroke-linejoin="round"/>
<path d="M129.064 57.2765C129.064 57.2765 123.702 55.2915 123.108 54.7092C122.515 54.127 117.526 56.7803 117.227 56.7803C116.928 56.7803 117.002 57.2765 117.302 57.475C117.601 57.6735 120.873 56.4825 120.873 56.4825C120.873 56.4825 117.751 58.6594 117.751 59.1291C117.755 59.2816 117.783 59.4312 117.834 59.568C117.884 59.7049 117.956 59.8259 118.045 59.9232C118.045 59.9232 118.12 60.8098 118.494 61.0083C118.868 61.2068 122.659 60.2143 122.659 60.2143C122.659 60.2143 119.666 61.6964 120.055 61.9942C120.235 62.1405 120.441 62.218 120.651 62.218C120.862 62.218 121.068 62.1405 121.248 61.9942C121.692 61.6964 124.375 60.6113 124.375 60.6113C124.375 60.6113 126.371 61.3987 127.498 61.0083C128.176 60.7637 128.842 60.4654 129.493 60.115L129.064 57.2765Z" fill="#EBFAFF" stroke="#1D282E" stroke-linecap="round" stroke-linejoin="round"/>
<path d="M118.046 59.9431L121.767 58.5602" stroke="#1D282E" stroke-linecap="round" stroke-linejoin="round"/>
<path d="M108.819 53.3263C108.819 53.3263 111.348 55.7943 111.812 56.5817C111.941 56.8035 112.035 57.0586 112.086 57.3307C112.138 57.6029 112.146 57.8863 112.111 58.163L110.47 57.2764C110.47 57.2764 112.555 59.7444 112.63 60.1348C112.705 60.5252 113.448 62.2124 112.555 62.0139C111.662 61.8154 108.983 59.9429 108.46 58.9504C107.936 57.9579 107.791 53.3263 107.791 53.3263C107.791 53.3263 108.001 52.3404 108.819 53.3263Z" fill="#EBFAFF" stroke="#1D282E" stroke-linecap="round" stroke-linejoin="round"/>
<path d="M112.613 60.7304L109.635 58.3617" stroke="#1D282E" stroke-linecap="round" stroke-linejoin="round"/>
<path d="M112.913 61.617C112.913 61.617 110.234 60.0422 109.71 59.4467" stroke="#1D282E" stroke-linecap="round" stroke-linejoin="round"/>
<path d="M110.455 57.2766L109.562 56.4826" stroke="#1D282E" stroke-linecap="round" stroke-linejoin="round"/>
<path d="M128.826 92.9402H126.751V148.877H128.826V92.9402Z" fill="#EBFAFF" stroke="#1D282E" stroke-linecap="round" stroke-linejoin="round"/>
<path d="M223.556 92.9402H221.481V148.877H223.556V92.9402Z" fill="#EBFAFF" stroke="#1D282E" stroke-linecap="round" stroke-linejoin="round"/>
<path d="M226.475 89.6385H125.015V94.8326H226.475V89.6385Z" fill="#EBFAFF" stroke="#1D282E" stroke-linecap="round" stroke-linejoin="round"/>
<path d="M22.4646 92.9402H20.3894V148.877H22.4646V92.9402Z" fill="#EBFAFF" stroke="#1D282E" stroke-linecap="round" stroke-linejoin="round"/>
<path d="M117.19 92.9402H115.115V148.877H117.19V92.9402Z" fill="#EBFAFF" stroke="#1D282E" stroke-linecap="round" stroke-linejoin="round"/>
<path d="M120.112 89.6385H18.6531V94.8326H120.112V89.6385Z" fill="#EBFAFF" stroke="#1D282E" stroke-linecap="round" stroke-linejoin="round"/>
<path d="M192.953 102.746L197.722 143.273L200.276 143.485L200.88 103.739L192.953 102.746Z" fill="#E8E8E8" stroke="#1D282E" stroke-linecap="round" stroke-linejoin="round"/>
<path d="M197.722 143.273V147.786C197.723 147.966 197.775 148.139 197.867 148.271C197.959 148.404 198.086 148.485 198.221 148.5L200.092 148.639C200.17 148.645 200.249 148.627 200.322 148.588C200.395 148.549 200.461 148.49 200.514 148.413C200.568 148.337 200.609 148.246 200.633 148.147C200.657 148.047 200.665 147.942 200.655 147.839L200.276 143.485L197.722 143.273Z" fill="#EBFAFF" stroke="#1D282E" stroke-linecap="round" stroke-linejoin="round"/>
<path d="M211.583 102.845L206.291 143.233L203.732 143.365L203.647 103.613L211.583 102.845Z" fill="#E8E8E8" stroke="#1D282E" stroke-linecap="round" stroke-linejoin="round"/>
<path d="M206.291 143.233L206.231 147.739C206.229 147.923 206.173 148.098 206.075 148.229C205.978 148.36 205.846 148.435 205.707 148.44L203.832 148.526C203.753 148.529 203.676 148.51 203.604 148.468C203.532 148.427 203.467 148.366 203.415 148.288C203.363 148.211 203.324 148.119 203.301 148.02C203.278 147.92 203.272 147.815 203.283 147.712L203.732 143.365L206.291 143.233Z" fill="#EBFAFF" stroke="#1D282E" stroke-linecap="round" stroke-linejoin="round"/>
<path d="M191.446 63.5824C191.446 63.5824 183.465 84.094 183.245 85.8408C183.026 87.5875 184.333 90.1746 186.617 89.8835C188.902 89.5924 194.853 89.4534 194.853 89.4534L194.963 86.7075L188.104 85.5562L192.239 81.2223L191.446 63.5824Z" fill="#A6FF98" stroke="#1D282E" stroke-linecap="round" stroke-linejoin="round"/>
<path d="M188.103 85.556L187.27 87.7196" stroke="#1D282E" stroke-linecap="round" stroke-linejoin="round"/>
<path d="M212.821 64.0258C212.821 64.0258 220.952 84.1072 221.172 85.8606C221.391 87.614 220.084 90.1945 217.8 89.9034C215.515 89.6123 210.172 89.4733 210.172 89.4733L210.063 86.6811L213.774 85.5298L211.175 81.143L212.821 64.0258Z" fill="#A6FF98" stroke="#1D282E" stroke-linecap="round" stroke-linejoin="round"/>
<path d="M213.774 85.556L217.146 87.7196" stroke="#1D282E" stroke-linecap="round" stroke-linejoin="round"/>
<path d="M199.039 58.1764L193.801 61.8552C191.182 63.6947 191.606 62.6625 191.451 63.5822C191.297 64.5019 192.334 96.3808 192.334 96.3808C192.334 96.3808 194.33 98.9613 199.577 99.6494C207.429 100.668 210.816 97.3998 210.816 97.3998C210.816 97.3998 212.812 65.1503 212.812 64.0255C212.812 62.9007 209.569 60.7172 207.494 59.3939C205.419 58.0705 203.114 56.9523 199.039 58.1764Z" fill="#A6FF98" stroke="#1D282E" stroke-linecap="round" stroke-linejoin="round"/>
<path d="M201.832 36.3947C201.832 36.3947 198.435 38.3797 197.343 41.6152C196.25 44.8507 198.021 52.4201 197.612 54.3985C197.203 56.3769 195.308 56.1982 195.308 56.1982C195.308 56.1982 196.121 62.3252 200.735 63.0465C205.349 63.7677 207.39 62.8612 209.29 60.1616C211.191 57.462 210.787 57.462 210.787 57.462C210.787 57.462 209.974 57.462 209.564 54.3985C209.155 51.335 209.699 42.6937 207.664 38.9156C205.629 35.1375 202.531 35.2831 201.832 36.3947Z" fill="#1D282E" stroke="#1D282E" stroke-linecap="round" stroke-linejoin="round"/>
<path d="M192.329 96.3808C192.329 96.3808 191.64 106.59 191.87 107.92C192.099 109.25 194.489 111.394 199.352 111.599C204.216 111.804 210.287 112.109 211.754 109.76C213.22 107.411 210.826 97.3998 210.826 97.3998C210.826 97.3998 197.876 98.829 192.329 96.3808Z" fill="#E8E8E8" stroke="#1D282E" stroke-linecap="round" stroke-linejoin="round"/>
<path d="M202.075 57.9845C202.075 57.9845 202.19 56.9259 204.569 57.8323" stroke="#1D282E" stroke-linecap="round" stroke-linejoin="round"/>
<path d="M192.219 148.262C192.148 148.255 192.078 148.23 192.014 148.187C191.951 148.144 191.894 148.085 191.847 148.013C191.801 147.941 191.766 147.858 191.744 147.767C191.722 147.677 191.714 147.582 191.72 147.488L193.302 108.866L195.117 109.058L192.793 147.607C192.781 147.794 192.715 147.968 192.607 148.09C192.5 148.213 192.36 148.275 192.219 148.262Z" fill="#1D282E" stroke="#1D282E" stroke-linecap="round" stroke-linejoin="round"/>
<path d="M211.799 148.262C211.942 148.247 212.075 148.157 212.169 148.011C212.262 147.866 212.309 147.678 212.297 147.488L210.716 108.866L208.9 109.058L211.22 147.607C211.233 147.795 211.3 147.968 211.409 148.091C211.517 148.213 211.657 148.275 211.799 148.262Z" fill="#1D282E" stroke="#1D282E" stroke-linecap="round" stroke-linejoin="round"/>
<path d="M213.66 78.463C209.597 79.2408 205.498 79.641 201.393 79.6607C197.553 79.6044 193.72 79.2042 189.92 78.463C189.776 78.4326 189.628 78.4479 189.489 78.5075C189.35 78.5672 189.224 78.6695 189.12 78.8062C189.016 78.943 188.939 79.1102 188.893 79.2943C188.847 79.4784 188.835 79.6742 188.857 79.8658C189.446 84.7489 191.117 98.7959 191.117 101.482C191.117 104.751 190.269 107.821 190.269 109.25C190.269 110.679 190.733 111.804 191.501 112.208C191.861 112.4 195.896 112.413 201.353 112.373C207.669 112.413 211.709 112.373 212.064 112.208C212.832 111.804 213.296 110.679 213.296 109.25C213.296 107.821 212.448 104.751 212.448 101.482C212.448 98.7959 214.119 84.7422 214.712 79.8658C214.735 79.6752 214.724 79.4802 214.679 79.2966C214.635 79.113 214.558 78.946 214.455 78.8092C214.353 78.6724 214.227 78.5698 214.089 78.5096C213.951 78.4495 213.804 78.4335 213.66 78.463ZM209.709 108.39C209.435 108.529 206.322 108.542 201.453 108.509C197.248 108.542 194.135 108.509 193.861 108.39C193.549 108.185 193.291 107.858 193.122 107.454C192.953 107.05 192.88 106.587 192.913 106.127C192.913 105.035 193.562 102.693 193.562 100.172C193.562 99.59 193.457 98.2931 193.297 96.6522L194.839 98.8687C195.05 99.1692 195.305 99.4088 195.59 99.5727C195.874 99.7366 196.18 99.8213 196.49 99.8215H207.065C207.652 99.8219 208.216 99.518 208.637 98.9746L210.248 96.8904C210.098 98.4188 210.003 99.6164 210.003 100.199C210.003 102.693 210.657 105.035 210.657 106.154C210.686 106.609 210.611 107.066 210.442 107.465C210.273 107.864 210.018 108.186 209.709 108.39ZM211.749 83.7034C211.49 85.8207 210.961 90.1943 210.552 93.9526L209.016 95.2164C208.154 95.9108 207.165 96.2771 206.157 96.275H197.542C196.563 96.2751 195.602 95.9279 194.759 95.2693L193.008 93.9063C192.604 90.1546 192.08 85.8075 191.821 83.7034C191.804 83.5565 191.814 83.4065 191.85 83.2657C191.885 83.1249 191.945 82.9971 192.025 82.8928C192.105 82.7884 192.202 82.7104 192.308 82.665C192.415 82.6196 192.528 82.6081 192.639 82.6315C195.568 83.1981 198.523 83.5031 201.483 83.5446C204.655 83.533 207.822 83.2278 210.961 82.6315C211.07 82.6136 211.18 82.6292 211.283 82.6771C211.386 82.7251 211.48 82.804 211.556 82.9078C211.632 83.0117 211.689 83.1375 211.723 83.2755C211.757 83.4136 211.766 83.56 211.749 83.7034Z" fill="#1D282E" stroke="#1D282E" stroke-linecap="round" stroke-linejoin="round"/>
<path d="M153.285 66.5131V61.0015H159.217V66.9234L153.285 66.5131Z" fill="#EBFAFF" stroke="#1D282E" stroke-linecap="round" stroke-linejoin="round"/>
<path d="M150.361 53.9549C150.361 53.9549 149.433 53.6439 149.433 55.5892C149.433 57.5345 150.65 58.8909 151.149 58.7519C151.648 58.613 150.92 54.9738 150.84 54.2592C150.76 53.5446 150.361 53.9549 150.361 53.9549Z" fill="#EBFAFF" stroke="#1D282E" stroke-linecap="round" stroke-linejoin="round"/>
<path d="M161.915 53.9549C161.915 53.9549 162.838 53.6439 162.838 55.5892C162.838 57.5345 161.626 58.8909 161.127 58.7519C160.628 58.613 161.357 54.9738 161.431 54.2592C161.506 53.5446 161.915 53.9549 161.915 53.9549Z" fill="#EBFAFF" stroke="#1D282E" stroke-linecap="round" stroke-linejoin="round"/>
<path d="M161.934 46.2601C161.934 46.2601 162.513 45.8763 161.865 44.0501C161.691 43.5329 161.432 43.0744 161.107 42.7089C160.781 42.3434 160.397 42.0803 159.984 41.9394C159.984 41.9394 160.483 41.5556 160.483 41.1719C160.483 40.7881 159.834 40.6955 157.879 41.463C157.35 41.6149 156.871 41.9869 156.512 42.5248C156.153 43.0627 155.933 43.7384 155.884 44.4537C155.847 44.4254 155.808 44.4011 155.769 44.3809C155.295 44.0766 153.459 42.9914 152.581 43.5737C151.584 44.2354 152.726 44.0501 152.726 44.0501C151.575 44.2993 150.54 45.1232 149.833 46.3527C148.75 48.3377 149.543 48.5626 149.763 48.5626C149.982 48.5626 150.197 47.6959 150.197 47.6959V49.5221C150.197 49.5221 150.222 49.6809 150.267 49.9323C149.962 52.6385 150.501 55.702 150.8 57.6274C151.184 60.0822 152.726 62.4311 153.883 62.9207C155.041 63.4104 158.577 62.9207 158.577 62.9207C159.459 61.7433 160.212 60.4068 160.812 58.9508C161.455 57.1502 161.795 55.1862 161.81 53.1943C162.204 52.1008 162.436 50.917 162.493 49.7073C162.658 47.2195 161.934 46.2601 161.934 46.2601Z" fill="#1D282E" stroke="#1D282E" stroke-linecap="round" stroke-linejoin="round"/>
<path d="M160.063 56.6481C160.063 56.6481 156.796 54.3125 153.578 56.1387C151.718 57.1907 150.346 59.8109 150.346 59.8109C151.966 59.1694 153.644 58.8265 155.334 58.7919C157.419 58.8537 159.501 59.0569 161.57 59.4007C161.2 58.3677 160.689 57.4344 160.063 56.6481Z" fill="#A6FF98" stroke="#1D282E" stroke-linecap="round" stroke-linejoin="round"/>
<path d="M143.199 66.3479C143.199 66.3479 134.718 84.1069 134.499 85.8405C134.279 87.574 135.586 90.1744 137.871 89.8832C140.156 89.5921 148.646 89.4532 148.646 89.4532L148.756 86.7073L141.902 85.5559L146.037 81.2221L143.199 66.3479Z" fill="#A6FF98" stroke="#1D282E" stroke-linecap="round" stroke-linejoin="round"/>
<path d="M141.901 85.5563L138.524 87.72" stroke="#1D282E" stroke-linecap="round" stroke-linejoin="round"/>
<path d="M169.303 65.6334C169.303 65.6334 177.898 84.1071 178.113 85.8406C178.327 87.5742 177.025 90.1745 174.741 89.8834C172.456 89.5922 163.966 89.4533 163.966 89.4533L163.856 86.7074L170.715 85.5561L166.58 81.2222L169.303 65.6334Z" fill="#A6FF98" stroke="#1D282E" stroke-linecap="round" stroke-linejoin="round"/>
<path d="M170.715 85.5563L174.087 87.72" stroke="#1D282E" stroke-linecap="round" stroke-linejoin="round"/>
<path d="M152.826 58.1762L147.588 61.855C144.969 63.6945 143.353 65.428 143.199 66.3477C143.044 67.2674 146.127 96.3806 146.127 96.3806C146.127 96.3806 148.122 98.9611 153.365 99.6492C161.217 100.668 164.604 97.3996 164.604 97.3996C164.604 97.3996 169.303 66.758 169.303 65.6398C169.303 64.5215 163.372 60.7368 161.296 59.4069C159.221 58.0769 156.907 56.9521 152.826 58.1762Z" fill="#A6FF98" stroke="#1D282E" stroke-linecap="round" stroke-linejoin="round"/>
<path d="M141.657 104.857L150.821 143.703L153.365 143.293L149.589 103.937L141.657 104.857Z" fill="#EBFAFF" stroke="#1D282E" stroke-linecap="round" stroke-linejoin="round"/>
<path d="M150.821 143.703L151.424 148.143C151.449 148.323 151.524 148.484 151.636 148.592C151.747 148.701 151.886 148.748 152.023 148.725L153.883 148.407C153.962 148.395 154.037 148.359 154.103 148.304C154.17 148.248 154.227 148.174 154.27 148.087C154.313 147.999 154.34 147.9 154.351 147.796C154.362 147.693 154.356 147.587 154.332 147.488L153.365 143.293L150.821 143.703Z" fill="#EBFAFF" stroke="#1D282E" stroke-linecap="round" stroke-linejoin="round"/>
<path d="M169.912 104.857L160.748 143.703L158.204 143.293L161.98 103.937L169.912 104.857Z" fill="#EBFAFF" stroke="#1D282E" stroke-linecap="round" stroke-linejoin="round"/>
<path d="M160.748 143.703L160.129 148.143C160.105 148.323 160.029 148.484 159.918 148.592C159.806 148.701 159.668 148.748 159.531 148.725L157.67 148.407C157.592 148.395 157.517 148.359 157.45 148.304C157.383 148.248 157.327 148.174 157.284 148.087C157.241 147.999 157.213 147.9 157.202 147.796C157.192 147.693 157.198 147.587 157.221 147.488L158.189 143.293L160.748 143.703Z" fill="#EBFAFF" stroke="#1D282E" stroke-linecap="round" stroke-linejoin="round"/>
<path d="M153.979 100.258C153.979 100.258 145.589 96.7846 144.047 97.8102C142.506 98.8358 140.964 101.482 141.503 104.427C142.042 107.371 146.666 110.964 147.664 111.043C148.662 111.123 154.059 111.043 154.059 111.043L153.979 100.258Z" fill="#EBFAFF" stroke="#1D282E" stroke-linecap="round" stroke-linejoin="round"/>
<path d="M158.104 100.258C158.104 100.258 166.499 96.7846 168.041 97.8102C169.582 98.8358 171.118 101.482 170.58 104.427C170.041 107.371 165.422 110.964 164.419 111.043C163.416 111.123 158.029 111.043 158.029 111.043L158.104 100.258Z" fill="#EBFAFF" stroke="#1D282E" stroke-linecap="round" stroke-linejoin="round"/>
<path d="M146.127 96.3808C146.127 96.3808 145.433 106.59 145.663 107.92C145.892 109.25 148.282 111.394 153.145 111.599C158.009 111.804 164.08 112.109 165.547 109.76C167.013 107.411 164.619 97.3998 164.619 97.3998C164.619 97.3998 151.649 98.829 146.127 96.3808Z" fill="#EBFAFF" stroke="#1D282E" stroke-linecap="round" stroke-linejoin="round"/>
<path d="M146.012 148.262C145.868 148.247 145.735 148.157 145.642 148.011C145.548 147.866 145.502 147.678 145.513 147.488L147.094 108.866L148.91 109.058L146.591 147.607C146.578 147.795 146.51 147.968 146.402 148.091C146.294 148.213 146.154 148.275 146.012 148.262Z" fill="#1D282E" stroke="#1D282E" stroke-linecap="round" stroke-linejoin="round"/>
<path d="M165.616 148.262C165.759 148.247 165.892 148.157 165.986 148.011C166.079 147.866 166.126 147.678 166.115 147.488L164.533 108.866L162.718 109.058L165.037 147.607C165.05 147.795 165.118 147.968 165.226 148.091C165.334 148.213 165.474 148.275 165.616 148.262Z" fill="#1D282E" stroke="#1D282E" stroke-linecap="round" stroke-linejoin="round"/>
<path d="M167.433 78.4631C163.37 79.2409 159.272 79.6411 155.167 79.6607C151.326 79.6039 147.493 79.2037 143.693 78.4631C143.549 78.4327 143.401 78.4479 143.262 78.5076C143.123 78.5672 142.997 78.6696 142.893 78.8063C142.79 78.943 142.712 79.1102 142.666 79.2943C142.621 79.4784 142.609 79.6743 142.631 79.8658C143.225 84.7489 144.896 98.796 144.896 101.482C144.896 104.751 144.048 107.821 144.048 109.25C144.048 110.679 144.507 111.804 145.28 112.208C145.634 112.4 149.67 112.413 155.127 112.373C161.447 112.413 165.483 112.373 165.837 112.208C166.61 111.804 167.069 110.679 167.069 109.25C167.069 107.821 166.226 104.751 166.226 101.482C166.226 98.796 167.897 84.7423 168.486 79.8658C168.509 79.6753 168.497 79.4802 168.453 79.2966C168.408 79.113 168.331 78.946 168.229 78.8092C168.126 78.6725 168 78.5698 167.862 78.5097C167.724 78.4495 167.577 78.4335 167.433 78.4631ZM163.482 108.39C163.208 108.529 160.095 108.542 155.227 108.509C151.021 108.542 147.909 108.509 147.634 108.39C147.322 108.185 147.064 107.858 146.895 107.454C146.726 107.05 146.653 106.587 146.686 106.127C146.686 105.035 147.34 102.693 147.34 100.172C147.34 99.59 147.235 98.2931 147.071 96.6522L148.617 98.8688C148.828 99.1702 149.083 99.4104 149.367 99.5744C149.652 99.7384 149.958 99.8225 150.268 99.8216H160.844C161.43 99.8199 161.994 99.5163 162.415 98.9746L164.021 96.8904C163.877 98.4188 163.782 99.6164 163.782 100.199C163.782 102.693 164.43 105.035 164.43 106.154C164.459 106.609 164.385 107.066 164.216 107.465C164.047 107.864 163.791 108.186 163.482 108.39ZM165.523 83.7034C165.263 85.8208 164.735 90.1944 164.33 93.9526L162.764 95.2164C161.904 95.9096 160.917 96.2759 159.911 96.275H151.321C150.34 96.2763 149.377 95.929 148.532 95.2693L146.786 93.9063C146.377 90.1547 145.853 85.8075 145.594 83.7034C145.578 83.5565 145.588 83.4066 145.623 83.2657C145.659 83.1249 145.719 82.9971 145.798 82.8928C145.878 82.7884 145.975 82.7104 146.082 82.665C146.188 82.6196 146.302 82.6082 146.412 82.6316C149.342 83.1981 152.296 83.5032 155.257 83.5447C158.42 83.5317 161.578 83.2266 164.71 82.6316C164.82 82.6079 164.933 82.6192 165.039 82.6645C165.146 82.7099 165.243 82.7881 165.322 82.8926C165.401 82.9972 165.461 83.1252 165.496 83.2661C165.531 83.407 165.54 83.5569 165.523 83.7034Z" fill="#1D282E" stroke="#1D282E" stroke-linecap="round" stroke-linejoin="round"/>
<path d="M147.349 78.655L150.307 93.2711L152.611 92.8344L150.142 79.31L147.349 78.655Z" fill="#E8E8E8" stroke="#1D282E" stroke-linecap="round" stroke-linejoin="round"/>
<path d="M159.026 92.3979L161.166 79.3102L164.129 78.8669L161.33 93.2712L159.026 92.3979Z" fill="#E8E8E8" stroke="#1D282E" stroke-linecap="round" stroke-linejoin="round"/>
<path d="M144.575 102.475L148.501 113.346V118.15L144.221 106.365L144.575 102.475Z" fill="#E8E8E8" stroke="#1D282E" stroke-linecap="round" stroke-linejoin="round"/>
<path d="M166.6 102.475L162.679 113.346V118.15L166.955 106.365L166.6 102.475Z" fill="#E8E8E8" stroke="#1D282E" stroke-linecap="round" stroke-linejoin="round"/>
<path d="M159.755 89.5659C159.755 89.5659 152.682 88.9042 150.542 89.7842C148.402 90.6643 147.254 92.8345 147.419 96.3281C147.584 99.8217 146.102 113.346 146.267 116.84C146.431 120.333 147.419 122.517 151.694 123.608C155.969 124.7 160.414 124.27 162.883 122.947C165.352 121.623 166.53 116.635 165.018 111.381C163.507 106.127 163.886 98.0484 163.227 94.1247C162.569 90.2011 160.908 89.7842 159.755 89.5659Z" fill="#A6FF98" stroke="#1D282E" stroke-linecap="round" stroke-linejoin="round"/>
<path d="M163.746 115.874C163.746 115.953 163.631 118.037 163.616 118.117C162.459 123.946 156.258 123.02 152.821 122.259C151.11 121.882 148.546 120.737 147.883 118.289C147.159 115.642 148.097 112.334 148.456 109.654C148.676 107.993 148.801 102.905 150.217 102.058C151.634 101.211 160.234 99.9872 161.536 103.434C162.993 107.312 163.227 111.388 163.746 115.874Z" fill="#A6FF98" stroke="#1D282E" stroke-linecap="round" stroke-linejoin="round"/>
<path d="M157.242 93.6088H153.99V96.0238H157.242V93.6088Z" fill="#1D282E" stroke="#1D282E" stroke-linecap="round" stroke-linejoin="round"/>
<path d="M148.915 109.839H162.968C163 110.517 162.847 111.187 162.536 111.727C162.225 112.267 161.778 112.64 161.277 112.777C159.177 113.372 156.862 113.26 154.732 113.267C152.821 113.26 148.696 113.637 148.915 109.839Z" fill="#1D282E" stroke="#1D282E" stroke-linecap="round" stroke-linejoin="round"/>
<path d="M86.5852 102.984L91.3541 143.518L93.9082 143.723L94.5118 103.983L86.5852 102.984Z" fill="#A6FF98" stroke="#1D282E" stroke-linecap="round" stroke-linejoin="round"/>
<path d="M91.355 143.518V148.024C91.3545 148.205 91.4056 148.38 91.4981 148.514C91.5905 148.648 91.7175 148.73 91.8538 148.745L93.7295 148.877C93.8079 148.882 93.886 148.864 93.9587 148.824C94.0313 148.785 94.0966 148.725 94.1502 148.649C94.2037 148.573 94.2442 148.483 94.2689 148.384C94.2936 148.285 94.3019 148.18 94.2932 148.077L93.914 143.723L91.355 143.518Z" fill="#EBFAFF" stroke="#1D282E" stroke-linecap="round" stroke-linejoin="round"/>
<path d="M105.223 103.084L99.9251 143.472L97.371 143.604L97.2812 103.858L105.223 103.084Z" fill="#A6FF98" stroke="#1D282E" stroke-linecap="round" stroke-linejoin="round"/>
<path d="M99.925 143.472L99.8651 147.978C99.8631 148.157 99.8109 148.328 99.7187 148.459C99.6265 148.59 99.5008 148.671 99.3663 148.685L97.4906 148.765C97.4121 148.768 97.3341 148.748 97.2619 148.707C97.1897 148.666 97.1251 148.604 97.0724 148.527C97.0198 148.45 96.9805 148.358 96.9571 148.259C96.9337 148.159 96.9268 148.054 96.9369 147.951L97.3859 143.604L99.925 143.472Z" fill="#EBFAFF" stroke="#1D282E" stroke-linecap="round" stroke-linejoin="round"/>
<path d="M85.0835 63.8207C85.0835 63.8207 77.102 84.3322 76.8775 86.079C76.653 87.8258 77.97 90.4129 80.2547 90.1218C82.5394 89.8307 88.4856 89.6917 88.4856 89.6917L88.5953 86.9458L81.7412 85.7945L85.8766 81.4606L85.0835 63.8207Z" fill="#EBFAFF" stroke="#1D282E" stroke-linecap="round" stroke-linejoin="round"/>
<path d="M81.7415 85.7943L80.9084 87.9579" stroke="#1D282E" stroke-linecap="round" stroke-linejoin="round"/>
<path d="M106.549 63.3775C106.549 63.3775 114.59 84.3522 114.805 86.0792C115.019 87.8061 113.717 90.4131 111.432 90.122C109.148 89.8308 103.81 89.6919 103.81 89.6919L103.7 86.946L107.407 85.7947L105.067 81.4872L106.549 63.3775Z" fill="#EBFAFF" stroke="#1D282E" stroke-linecap="round" stroke-linejoin="round"/>
<path d="M107.408 85.7943L110.78 87.9579" stroke="#1D282E" stroke-linecap="round" stroke-linejoin="round"/>
<path d="M92.666 58.4216L87.4282 62.0939C84.8093 63.9333 85.2333 62.9011 85.0837 63.8208C84.934 64.7405 85.9666 96.6062 85.9666 96.6062C85.9666 96.6062 87.962 99.1933 93.2048 99.8748C101.062 100.894 104.449 97.6252 104.449 97.6252C104.449 97.6252 106.444 65.3757 106.444 64.2509C106.444 63.1261 103.202 60.9426 101.121 59.6192C99.0412 58.2959 96.7466 57.1909 92.666 58.4216Z" fill="#EBFAFF" stroke="#1D282E" stroke-linecap="round" stroke-linejoin="round"/>
<path d="M85.9663 96.6061C85.9663 96.6061 85.2729 106.822 85.5024 108.145C85.7318 109.469 88.1213 111.619 92.985 111.824C97.8487 112.029 103.92 112.334 105.381 109.985C106.843 107.636 104.458 97.625 104.458 97.625C104.458 97.625 91.5084 99.0675 85.9663 96.6061Z" fill="#A6FF98" stroke="#1D282E" stroke-linecap="round" stroke-linejoin="round"/>
<path d="M96.2779 38.4194C96.2779 38.4194 93.7837 36.4344 91.1498 40.2323C88.5159 44.0303 91.2645 51.5732 91.6037 53.3862C91.9429 55.1992 87.0493 65.5079 87.0493 70.1395C87.0493 74.7711 91.2895 79.4028 97.9939 78.4831C104.698 77.5634 105.516 72.8854 104.604 67.2944C103.691 61.7033 102.663 55.8013 102.663 53.3994C102.663 50.9976 104.259 45.5389 102.778 40.2456C101.296 34.9523 97.6497 36.4542 96.2779 38.4194Z" fill="#1D282E" stroke="#1D282E" stroke-linecap="round" stroke-linejoin="round"/>
<path d="M92.6366 54.2925L95.7145 58.2228C95.7145 58.2228 92.5219 68.3529 92.1777 71.0723C91.8335 73.7917 93.6742 76.3656 96.1684 76.0613C98.6626 75.7569 100.274 72.8853 100.159 70.4702C100.044 68.0551 98.2186 58.0706 98.2186 58.0706C99.7941 56.9795 101.129 55.3655 102.095 53.386" stroke="#E8E8E8" stroke-linecap="round" stroke-linejoin="round"/>
<path d="M95.7146 58.2295C95.7146 58.2295 95.8293 57.1709 98.2088 58.0773" stroke="#1D282E" stroke-linecap="round" stroke-linejoin="round"/>
<path d="M85.8529 148.5C85.7103 148.485 85.5781 148.396 85.4847 148.252C85.3913 148.109 85.3444 147.922 85.354 147.733L86.9353 109.105L88.7511 109.303L86.4315 147.845C86.4201 148.034 86.3527 148.209 86.2442 148.331C86.1358 148.454 85.995 148.515 85.8529 148.5Z" fill="#1D282E" stroke="#1D282E" stroke-linecap="round" stroke-linejoin="round"/>
<path d="M105.432 148.5C105.503 148.494 105.572 148.468 105.635 148.426C105.699 148.384 105.755 148.325 105.802 148.254C105.848 148.183 105.883 148.1 105.906 148.011C105.928 147.921 105.936 147.827 105.931 147.733L104.355 109.105L102.539 109.303L104.858 147.845C104.87 148.033 104.937 148.206 105.044 148.329C105.151 148.451 105.291 148.513 105.432 148.5Z" fill="#1D282E" stroke="#1D282E" stroke-linecap="round" stroke-linejoin="round"/>
<path d="M107.293 78.7014C103.232 79.4789 99.1348 79.8791 95.0316 79.899C91.1911 79.8454 87.3578 79.4453 83.5583 78.7014C83.4139 78.6719 83.2662 78.6881 83.1274 78.7486C82.9886 78.8091 82.8625 78.9122 82.7595 79.0495C82.6564 79.1869 82.5792 79.3546 82.5343 79.539C82.4893 79.7234 82.4778 79.9193 82.5007 80.1107C83.0894 84.9872 84.7605 99.0343 84.7605 101.727C84.7605 104.996 83.9125 108.059 83.9125 109.489C83.9125 110.918 84.3764 112.043 85.1446 112.453C85.4988 112.638 89.5344 112.651 94.9917 112.612C101.312 112.651 105.348 112.612 105.707 112.453C106.475 112.043 106.939 110.918 106.939 109.489C106.939 108.059 106.091 104.996 106.091 101.727C106.091 99.0343 107.762 84.9872 108.351 80.1107C108.375 79.919 108.364 79.7225 108.319 79.5374C108.275 79.3523 108.198 79.184 108.094 79.0463C107.991 78.9085 107.865 78.8054 107.725 78.7455C107.586 78.6855 107.438 78.6704 107.293 78.7014ZM103.342 108.628C103.068 108.774 99.9552 108.781 95.0865 108.754C90.8813 108.754 87.7685 108.754 87.4941 108.628C87.182 108.423 86.9243 108.096 86.755 107.692C86.5858 107.288 86.513 106.826 86.5463 106.366C86.5463 105.274 87.1998 102.938 87.1998 100.444C87.1998 99.8547 87.0951 98.5579 86.9354 96.9236L88.4768 99.1335C88.6873 99.4358 88.9427 99.6771 89.2268 99.8422C89.511 100.007 89.8178 100.093 90.128 100.093H100.703C101.287 100.094 101.847 99.7928 102.265 99.2526L103.871 97.175C103.726 98.6968 103.632 99.8944 103.632 100.483C103.632 102.978 104.285 105.313 104.285 106.405C104.313 106.858 104.238 107.312 104.07 107.708C103.902 108.104 103.648 108.424 103.342 108.628ZM105.383 83.9417C105.123 86.0591 104.599 90.4327 104.19 94.1909L102.629 95.4547C101.768 96.1514 100.779 96.52 99.7706 96.52H91.1806C90.1995 96.5192 89.2366 96.1696 88.392 95.5076L86.6461 94.1446C86.2371 90.3996 85.7133 86.0524 85.4589 83.9417C85.4415 83.7945 85.4507 83.644 85.4858 83.5024C85.5209 83.3609 85.5809 83.2325 85.6609 83.1278C85.7408 83.0231 85.8383 82.9451 85.9455 82.9002C86.0526 82.8554 86.1662 82.845 86.277 82.8698C89.2046 83.439 92.1577 83.7462 95.1164 83.7896C98.2879 83.7723 101.455 83.465 104.594 82.8698C104.703 82.8519 104.813 82.8675 104.916 82.9154C105.019 82.9634 105.113 83.0424 105.189 83.1462C105.266 83.25 105.323 83.3758 105.356 83.5139C105.39 83.6519 105.399 83.7983 105.383 83.9417Z" fill="#1D282E" stroke="#1D282E" stroke-linecap="round" stroke-linejoin="round"/>
<path d="M46.9236 57.8128V52.3011H52.8498V58.223L46.9236 57.8128Z" fill="#EBFAFF" stroke="#1D282E" stroke-linecap="round" stroke-linejoin="round"/>
<path d="M43.9949 45.2542C43.9949 45.2542 43.072 44.9432 43.072 46.8885C43.072 48.8338 44.3042 50.1505 44.7631 50.0513C45.222 49.952 44.5336 46.2732 44.4588 45.5586C44.384 44.844 43.9949 45.2542 43.9949 45.2542Z" fill="#EBFAFF" stroke="#1D282E" stroke-linecap="round" stroke-linejoin="round"/>
<path d="M55.5477 45.2542C55.5477 45.2542 56.4755 44.9432 56.4755 46.8885C56.4755 48.8338 55.2434 50.1505 54.7795 50.0513C54.3156 49.952 55.009 46.2732 55.0888 45.5586C55.1686 44.844 55.5477 45.2542 55.5477 45.2542Z" fill="#EBFAFF" stroke="#1D282E" stroke-linecap="round" stroke-linejoin="round"/>
<path d="M48.076 35.5475C48.076 35.5475 45.4571 36.057 44.3796 39.1205C43.3021 42.184 44.0753 46.4782 44.4594 48.9263C44.8435 51.3745 46.385 53.73 47.5373 54.2196C48.6896 54.7093 52.2364 54.2196 52.2364 54.2196C53.1167 53.0404 53.8689 51.7043 54.4712 50.2497C55.5487 47.6956 55.7033 42.892 55.2394 40.1395C54.7755 37.3869 53.1592 34.6212 51.9271 34.4161C50.6949 34.211 49.5426 35.7394 49.5426 35.7394C49.0853 35.4521 48.5669 35.3843 48.076 35.5475Z" fill="#1D282E" stroke="#1D282E" stroke-linecap="round" stroke-linejoin="round"/>
<path d="M53.6981 56.7936C53.6981 56.7936 49.2086 55.8739 47.2132 56.2841C45.2178 56.6943 43.9807 59.9563 43.9807 59.9563C45.6006 59.3158 47.279 58.9729 48.9691 58.9374C51.0542 59.0002 53.1355 59.2056 55.2046 59.5527C54.8344 58.5182 54.3237 57.5828 53.6981 56.7936Z" fill="#EBFAFF" stroke="#1D282E" stroke-linecap="round" stroke-linejoin="round"/>
<path d="M36.836 66.4938C36.836 66.4938 28.3507 84.2594 28.1362 86.0195C27.9217 87.7795 29.2237 90.3533 31.5084 90.0622C33.7931 89.7711 42.2834 89.6321 42.2834 89.6321L42.3881 86.8862L35.534 85.735L39.6694 81.3878L36.836 66.4938Z" fill="#EBFAFF" stroke="#1D282E" stroke-linecap="round" stroke-linejoin="round"/>
<path d="M35.5343 85.7017L32.1621 87.8654" stroke="#1D282E" stroke-linecap="round" stroke-linejoin="round"/>
<path d="M62.9415 65.7791C62.9415 65.7791 71.5315 84.2593 71.751 85.9862C71.9705 87.7132 70.6635 90.3201 68.3739 90.029C66.0842 89.7379 57.6039 89.5989 57.6039 89.5989L57.4941 86.853L64.3532 85.7017L60.2128 81.3877L62.9415 65.7791Z" fill="#EBFAFF" stroke="#1D282E" stroke-linecap="round" stroke-linejoin="round"/>
<path d="M64.3484 85.7017L67.7255 87.8654" stroke="#1D282E" stroke-linecap="round" stroke-linejoin="round"/>
<path d="M46.459 58.3218L41.2212 62.0007C38.6072 63.8401 36.986 65.5737 36.8363 66.4934C36.6867 67.4131 39.7596 96.5263 39.7596 96.5263C39.7596 96.5263 41.7549 99.1068 46.9977 99.7949C54.8545 100.814 58.2416 97.5452 58.2416 97.5452C58.2416 97.5452 62.9407 66.9036 62.9407 65.7854C62.9407 64.6672 57.0095 60.8759 54.9293 59.5525C52.8491 58.2292 50.5395 57.0978 46.459 58.3218Z" fill="#EBFAFF" stroke="#1D282E" stroke-linecap="round" stroke-linejoin="round"/>
<path d="M35.2959 105.002L44.4596 143.849L46.9987 143.445L43.2275 104.083L35.2959 105.002Z" fill="#A6FF98" stroke="#1D282E" stroke-linecap="round" stroke-linejoin="round"/>
<path d="M44.4597 143.849L45.0583 148.289C45.0839 148.469 45.1607 148.63 45.2729 148.739C45.3851 148.847 45.5243 148.894 45.6619 148.871L47.5226 148.553C47.6003 148.54 47.6749 148.504 47.741 148.448C47.8072 148.392 47.8633 148.318 47.9056 148.23C47.9479 148.143 47.9753 148.044 47.9858 147.941C47.9963 147.838 47.9897 147.733 47.9666 147.634L46.9988 143.445L44.4597 143.849Z" fill="#EBFAFF" stroke="#1D282E" stroke-linecap="round" stroke-linejoin="round"/>
<path d="M63.5448 105.002L54.3811 143.849L51.842 143.445L55.6133 104.083L63.5448 105.002Z" fill="#A6FF98" stroke="#1D282E" stroke-linecap="round" stroke-linejoin="round"/>
<path d="M54.3769 143.849L53.7783 148.289C53.7527 148.469 53.6759 148.63 53.5637 148.739C53.4515 148.847 53.3123 148.894 53.1747 148.871L51.314 148.553C51.2363 148.54 51.1617 148.504 51.0956 148.448C51.0294 148.392 50.9733 148.318 50.931 148.23C50.8887 148.143 50.8614 148.044 50.8508 147.941C50.8403 147.838 50.8469 147.733 50.87 147.634L51.8378 143.445L54.3769 143.849Z" fill="#EBFAFF" stroke="#1D282E" stroke-linecap="round" stroke-linejoin="round"/>
<path d="M47.6177 100.404C47.6177 100.404 39.2222 96.937 37.6808 97.9295C36.1394 98.922 34.6029 101.608 35.1417 104.546C35.6804 107.484 40.2997 111.083 41.3024 111.163C42.305 111.242 47.6925 111.163 47.6925 111.163L47.6177 100.404Z" fill="#A6FF98" stroke="#1D282E" stroke-linecap="round" stroke-linejoin="round"/>
<path d="M51.7414 100.404C51.7414 100.404 60.1319 96.9369 61.6734 97.9558C63.2148 98.9748 64.7562 101.635 64.2125 104.572C63.6687 107.51 59.0544 111.11 58.0518 111.189C57.0491 111.268 51.6616 111.189 51.6616 111.189L51.7414 100.404Z" fill="#A6FF98" stroke="#1D282E" stroke-linecap="round" stroke-linejoin="round"/>
<path d="M39.7595 96.5266C39.7595 96.5266 39.0661 106.743 39.2956 108.066C39.525 109.389 41.9145 111.54 46.7782 111.745C51.6419 111.95 57.7128 112.254 59.1744 109.905C60.636 107.557 58.2515 97.5455 58.2515 97.5455C58.2515 97.5455 45.3066 98.9747 39.7595 96.5266Z" fill="#A6FF98" stroke="#1D282E" stroke-linecap="round" stroke-linejoin="round"/>
<path d="M39.6506 148.408C39.5798 148.401 39.5106 148.376 39.4472 148.333C39.3837 148.291 39.3272 148.233 39.2808 148.161C39.2345 148.09 39.1992 148.007 39.1771 147.918C39.1549 147.828 39.1463 147.734 39.1517 147.64L40.7281 109.012L42.5438 109.211L40.2292 147.753C40.2178 147.941 40.1504 148.116 40.042 148.239C39.9335 148.361 39.7927 148.422 39.6506 148.408Z" fill="#1D282E" stroke="#1D282E" stroke-linecap="round" stroke-linejoin="round"/>
<path d="M59.2253 148.408C59.2961 148.401 59.3652 148.376 59.4287 148.333C59.4922 148.291 59.5487 148.233 59.595 148.161C59.6414 148.09 59.6767 148.007 59.6988 147.918C59.721 147.828 59.7296 147.734 59.7241 147.64L58.1478 109.012L56.332 109.211L58.6516 147.753C58.6631 147.94 58.7298 148.114 58.8371 148.236C58.9445 148.359 59.084 148.42 59.2253 148.408Z" fill="#1D282E" stroke="#1D282E" stroke-linecap="round" stroke-linejoin="round"/>
<path d="M61.0703 78.6086C57.0075 79.3864 52.9087 79.7866 48.8038 79.8062C44.9634 79.7499 41.1303 79.3498 37.3305 78.6086C37.1857 78.5779 37.0375 78.5932 36.898 78.6532C36.7586 78.7132 36.6318 78.8161 36.5281 78.9537C36.4244 79.0912 36.3468 79.2593 36.3016 79.4443C36.2564 79.6293 36.2448 79.8259 36.268 80.0179C36.8566 84.8944 38.5277 98.9415 38.5277 101.634C38.5277 104.903 37.6797 107.967 37.6797 109.396C37.6797 110.825 38.1436 111.95 38.9118 112.36C39.271 112.545 43.3066 112.559 48.7639 112.519C55.0792 112.559 59.1199 112.519 59.474 112.36C60.2422 111.95 60.7062 110.825 60.7062 109.396C60.7062 107.967 59.8581 104.903 59.8581 101.634C59.8581 98.9415 61.5293 84.8878 62.1179 80.0113C62.1418 79.8212 62.1312 79.6262 62.0872 79.4425C62.0432 79.2588 61.9669 79.0916 61.8646 78.9546C61.7623 78.8176 61.637 78.7148 61.4989 78.6547C61.3608 78.5945 61.2139 78.5787 61.0703 78.6086ZM57.1195 108.516C56.8451 108.655 53.7324 108.668 48.8587 108.641C44.6535 108.641 41.5457 108.641 41.2713 108.516C40.9583 108.311 40.6995 107.985 40.5293 107.581C40.3592 107.177 40.2856 106.714 40.3185 106.253C40.3185 105.161 40.972 102.825 40.972 100.331C40.972 99.7421 40.8673 98.4453 40.7076 96.811L42.2491 99.0209C42.4599 99.3225 42.7153 99.5634 42.9994 99.7284C43.2835 99.8935 43.5901 99.9792 43.9002 99.9803H54.4756C55.0638 99.9818 55.6286 99.675 56.047 99.1268L57.6582 97.0492C57.5086 98.571 57.4138 99.7686 57.4138 100.357C57.4138 102.852 58.0673 105.188 58.0673 106.279C58.0964 106.735 58.0217 107.192 57.8527 107.591C57.6837 107.99 57.4282 108.312 57.1195 108.516ZM59.1548 83.8291C58.9004 85.9464 58.3716 90.32 57.9625 94.0783L56.4012 95.3421C55.5398 96.0365 54.5508 96.4028 53.5428 96.4007H44.9528C43.9739 96.4008 43.0128 96.0536 42.1692 95.395L40.4083 94.0518C40.0043 90.3002 39.4805 85.9597 39.2211 83.849C39.2048 83.702 39.2148 83.5521 39.2504 83.4113C39.2859 83.2704 39.3459 83.1427 39.4256 83.0383C39.5052 82.9339 39.6023 82.8559 39.7089 82.8105C39.8155 82.7652 39.9286 82.7537 40.0392 82.7771C42.9702 83.3442 45.9267 83.6493 48.8886 83.6902C52.0601 83.6783 55.2271 83.3731 58.3666 82.7771C58.4751 82.7591 58.5852 82.7747 58.6884 82.8227C58.7916 82.8706 58.885 82.9496 58.9614 83.0534C59.0377 83.1572 59.0949 83.2831 59.1285 83.4211C59.162 83.5591 59.171 83.7056 59.1548 83.849V83.8291Z" fill="#1D282E" stroke="#1D282E" stroke-linecap="round" stroke-linejoin="round"/>
<path d="M0.5 148.877H234.456" stroke="#1D282E" stroke-linecap="round" stroke-linejoin="round"/>
</svg>
