<svg width="235" height="150" viewBox="0 0 235 150" fill="none" xmlns="http://www.w3.org/2000/svg">
<path d="M39.6899 50.2898H13.9946V78.92H39.6899V50.2898Z" fill="#1D282E" stroke="#1D282E" stroke-linecap="round" stroke-linejoin="round"/>
<path d="M55.2837 82.5588H29.5884V84.3784H55.2837V82.5588Z" fill="#1D282E" stroke="#1D282E" stroke-linecap="round" stroke-linejoin="round"/>
<path d="M28.5602 70.9666H23.5918V84.1469H28.5602V70.9666Z" fill="#E8E8E8" stroke="#1D282E" stroke-linecap="round" stroke-linejoin="round"/>
<path d="M79.6117 86.9788H11.0859V147.448H79.6117V86.9788Z" fill="#E8E8E8" stroke="#1D282E" stroke-linecap="round" stroke-linejoin="round"/>
<path d="M12.2081 87.4153H9.89844V148.877H12.2081V87.4153Z" fill="#E8E8E8" stroke="#1D282E" stroke-linecap="round" stroke-linejoin="round"/>
<path d="M80.544 87.4153H78.2344V148.877H80.544V87.4153Z" fill="#E8E8E8" stroke="#1D282E" stroke-linecap="round" stroke-linejoin="round"/>
<path d="M83.7916 83.7498H7.96777V89.5261H83.7916V83.7498Z" fill="#E8E8E8" stroke="#1D282E" stroke-linecap="round" stroke-linejoin="round"/>
<path d="M118.047 27.8325C118.047 27.8325 115.293 30.102 114.4 33.0662C113.507 36.0305 109.786 51.348 108.818 53.3264C107.85 55.3047 107.85 58.3616 108.968 60.0422C110.085 61.7229 111.961 62.8014 113.507 60.8296C115.053 58.8579 115.502 54.9077 116.999 50.243C118.495 45.5783 119.758 32.4509 120.491 29.7844C120.937 28.1927 121.237 26.5354 121.384 24.8484L118.047 27.8325Z" fill="#EBFAFF" stroke="#1D282E" stroke-linecap="round" stroke-linejoin="round"/>
<path d="M140.528 66.355C140.528 66.355 140.972 74.209 140.747 78.2054C140.523 82.2019 138.518 107.411 138.518 107.411L135.614 141.421H131.15L127.907 91.2667L123.557 141.275H118.978C118.978 141.275 116.299 109.78 115.516 102.237C115.047 97.5196 114.935 92.7517 115.182 88.0047C115.182 87.5614 114.184 77.4908 114.184 74.6788C114.199 72.7626 114.299 70.8494 114.483 68.9488L114.299 67.8636C114.299 67.8636 122.56 70.8279 128.266 69.048C133.973 67.2681 139.54 64.906 139.54 64.906L140.528 66.355Z" fill="#1D282E" stroke="#1D282E" stroke-linecap="round" stroke-linejoin="round"/>
<path d="M135.616 141.42L136.953 147.495C137 147.591 137.031 147.698 137.045 147.811C137.059 147.923 137.056 148.038 137.035 148.149C137.015 148.26 136.977 148.364 136.926 148.455C136.874 148.546 136.808 148.622 136.734 148.679C136.175 149.122 129.919 148.679 129.919 148.679C129.743 148.558 129.603 148.361 129.522 148.121C129.441 147.88 129.425 147.61 129.475 147.356C129.585 146.317 131.152 141.401 131.152 141.401L135.616 141.42Z" stroke="#1D282E" stroke-linecap="round" stroke-linejoin="round"/>
<path d="M123.558 141.275L123.962 146.813C123.986 147.158 123.917 147.502 123.767 147.786V147.786C123.667 147.97 123.535 148.121 123.383 148.224C123.23 148.328 123.061 148.382 122.889 148.381H114.235C113.357 148.381 111.661 148.341 111.825 147.197C111.935 146.456 118.969 141.295 118.969 141.295L123.558 141.275Z" stroke="#1D282E" stroke-linecap="round" stroke-linejoin="round"/>
<path d="M127.908 91.2661L126.796 85.02L122.775 81.3147" stroke="#DDB8B8" stroke-linecap="round" stroke-linejoin="round"/>
<path d="M116.484 35.4351V46.9811C116.484 47.6428 113.806 62.8611 113.581 64.3564C113.357 65.8518 113.581 67.2214 114.474 68.8954C115.367 70.5694 118.719 72.2567 126.012 73.0441C133.305 73.8314 138.743 70.2783 140.229 68.0088C141.716 65.7393 140.005 61.3922 139.486 55.2718C138.967 49.1514 138.812 29.7779 136.732 28.5207C134.652 27.2636 127.948 22.9958 127.948 22.9958C127.948 22.9958 124.151 22.9959 121.622 24.478C119.961 25.5341 118.488 27.0476 117.302 28.9177" fill="#EBFAFF"/>
<path d="M116.484 35.4351V46.9811C116.484 47.6428 113.806 62.8611 113.581 64.3564C113.357 65.8518 113.581 67.2214 114.474 68.8954C115.367 70.5694 118.719 72.2567 126.012 73.0441C133.305 73.8314 138.743 70.2783 140.229 68.0088C141.716 65.7393 140.005 61.3922 139.486 55.2718C138.967 49.1514 138.812 29.7779 136.732 28.5207C134.652 27.2636 127.948 22.9958 127.948 22.9958C127.948 22.9958 124.151 22.9959 121.622 24.478C119.961 25.5341 118.488 27.0476 117.302 28.9177" stroke="#1D282E" stroke-linecap="round" stroke-linejoin="round"/>
<path d="M127.499 21.0174C127.914 20.9715 128.33 21.0993 128.688 21.3829C129.046 21.6665 129.328 22.0917 129.494 22.5988C130.018 24.3786 128.377 35.1373 128.377 35.1373C128.377 35.1373 124.73 31.6834 123.838 31.6834C122.945 31.6834 118.849 35.1373 118.849 35.1373C118.849 35.1373 120.191 27.7333 121.383 24.8683C122.575 22.0033 125.848 20.4285 127.19 20.8983L127.499 21.0174Z" fill="#EBFAFF" stroke="#1D282E" stroke-linecap="round" stroke-linejoin="round"/>
<path d="M127.798 20.032C127.798 20.032 128.098 21.0179 126.756 25.762C125.414 30.5061 124.761 34.5489 123.927 33.4571C123.094 32.3654 122.142 26.6486 122.142 26.6486C122.142 26.6486 126.457 22.5 127.798 20.032Z" fill="#EBFAFF" stroke="#1D282E" stroke-linecap="round" stroke-linejoin="round"/>
<path d="M115.825 12.3825C116.203 15.1251 116.689 17.8394 117.282 20.5143C118.005 23.3992 118.938 27.6669 121.427 28.6263C123.916 29.5857 124.645 27.1177 125.682 25.9796C126.72 24.8416 128.376 21.1627 128.376 19.363C128.376 17.5633 128.271 13.5867 127.752 12.2104C127.234 10.8342 126.301 9.45792 123.607 8.76979C120.913 8.08166 118.419 8.66393 115.825 12.3825Z" fill="#EBFAFF" stroke="#1D282E" stroke-linecap="round" stroke-linejoin="round"/>
<path d="M127.548 16.0946C127.548 16.0946 125.992 16.9217 125.578 15.6844C125.164 14.4471 124.435 12.654 124.435 12.654C124.435 12.654 121.218 14.4471 119.252 14.5596C117.287 14.6721 115.102 13.051 114.793 11.2513C114.483 9.45154 115.621 5.47494 118.215 3.3113C120.809 1.14766 126.196 0.141938 127.857 3.58259C129.117 6.20635 129.733 9.28243 129.623 12.3893C129.623 14.725 129.519 16.3593 129.519 16.3593C129.223 16.1313 128.895 15.9897 128.555 15.9441C128.215 15.8984 127.872 15.9498 127.548 16.0946V16.0946Z" fill="#1D282E" stroke="#1D282E" stroke-linecap="round" stroke-linejoin="round"/>
<path d="M126.925 17.0608C126.925 17.0608 127.858 13.8914 128.791 14.3083C129.724 14.7251 129.829 17.1998 129.29 18.7084C128.751 20.217 127.424 20.7727 127.115 20.5015" fill="#EBFAFF"/>
<path d="M126.925 17.0608C126.925 17.0608 127.858 13.8914 128.791 14.3083C129.724 14.7251 129.829 17.1998 129.29 18.7084C128.751 20.217 127.424 20.7727 127.115 20.5015" stroke="#1D282E" stroke-linecap="round" stroke-linejoin="round"/>
<path d="M119.953 18.7348C119.953 18.7348 123.704 18.3841 124.497 18.523C125.29 18.662 125.18 19.8464 124.971 21.1697C124.761 22.493 123.544 23.2738 122.118 22.9231C120.691 22.5724 120.372 20.9381 120.122 20.6801C119.873 20.422 119.753 20.1176 119.439 20.3294C119.124 20.5411 119.174 22.01 118.805 22.6386C118.436 23.2672 117.428 23.7634 116.311 22.9893C115.194 22.2151 115.253 19.9787 115.253 19.2046C115.253 18.4304 115.832 18.5032 116.097 18.5429C116.361 18.5826 119.953 18.7348 119.953 18.7348Z" stroke="#1D282E" stroke-linecap="round" stroke-linejoin="round"/>
<path d="M125.025 18.8075L127.35 15.6514" stroke="#1D282E" stroke-linecap="round" stroke-linejoin="round"/>
<path d="M115.512 18.5233L116.41 17.0544" stroke="#1D282E" stroke-linecap="round" stroke-linejoin="round"/>
<path d="M119.369 21.1165C119.369 21.1165 119.159 21.9568 119.049 22.6581C118.94 23.3595 119.369 24.7622 120.002 24.6431C120.636 24.524 120.795 24.0807 120.795 24.0807" stroke="#1D282E" stroke-linecap="round" stroke-linejoin="round"/>
<path d="M123.711 17.7552C122.998 17.4619 122.23 17.5111 121.542 17.8942" stroke="#1D282E" stroke-linecap="round" stroke-linejoin="round"/>
<path d="M118.84 18.0333C118.604 17.7754 118.31 17.6284 118.004 17.6152C117.698 17.6021 117.397 17.7235 117.149 17.9605" stroke="#1D282E" stroke-linecap="round" stroke-linejoin="round"/>
<path d="M134.573 27.3362C134.573 27.3362 137.776 28.6198 139.187 30.2012C140.599 31.7826 142.879 44.202 143.547 50.1239C144.216 56.0457 145.258 61.167 144.365 61.8618C143.472 62.5565 129.51 60.1348 129.51 60.1348L129.066 57.2764L138.165 54.7621C138.165 54.7621 133.082 41.5289 132.937 37.9029C132.802 35.96 133.005 34.0019 133.531 32.1796" fill="#EBFAFF"/>
<path d="M134.573 27.3362C134.573 27.3362 137.776 28.6198 139.187 30.2012C140.599 31.7826 142.879 44.202 143.547 50.1239C144.216 56.0457 145.258 61.167 144.365 61.8618C143.472 62.5565 129.51 60.1348 129.51 60.1348L129.066 57.2764L138.165 54.7621C138.165 54.7621 133.082 41.5289 132.937 37.9029C132.802 35.96 133.005 34.0019 133.531 32.1796" stroke="#1D282E" stroke-linecap="round" stroke-linejoin="round"/>
<path d="M119.687 50.4617L123.627 63.2979L116.933 66.5533L112.763 54.1141L119.687 50.4617Z" fill="#F5DE8B" stroke="#1D282E" stroke-linecap="round" stroke-linejoin="round"/>
<path d="M112.763 54.1138L107.999 49.4756L112.239 62.5103L116.933 66.5531L112.763 54.1138Z" fill="#F5DE8B" stroke="#1D282E" stroke-linecap="round" stroke-linejoin="round"/>
<path d="M129.064 57.2765C129.064 57.2765 123.702 55.2915 123.108 54.7092C122.514 54.127 117.526 56.7803 117.227 56.7803C116.927 56.7803 117.002 57.2765 117.301 57.475C117.601 57.6735 120.873 56.4825 120.873 56.4825C120.873 56.4825 117.75 58.6594 117.75 59.1291C117.754 59.2816 117.783 59.4312 117.833 59.568C117.884 59.7049 117.956 59.8259 118.045 59.9232C118.045 59.9232 118.12 60.8098 118.494 61.0083C118.868 61.2068 122.659 60.2143 122.659 60.2143C122.659 60.2143 119.666 61.6964 120.055 61.9942C120.234 62.1405 120.441 62.218 120.651 62.218C120.862 62.218 121.068 62.1405 121.247 61.9942C121.691 61.6964 124.375 60.6113 124.375 60.6113C124.375 60.6113 126.37 61.3987 127.498 61.0083C128.176 60.7637 128.842 60.4654 129.493 60.115L129.064 57.2765Z" fill="#EBFAFF" stroke="#1D282E" stroke-linecap="round" stroke-linejoin="round"/>
<path d="M118.046 59.9432L121.767 58.5603" stroke="#1D282E" stroke-linecap="round" stroke-linejoin="round"/>
<path d="M108.819 53.3261C108.819 53.3261 111.348 55.7941 111.812 56.5815C111.941 56.8034 112.035 57.0584 112.086 57.3306C112.138 57.6028 112.146 57.8861 112.111 58.1629L110.47 57.2762C110.47 57.2762 112.555 59.7442 112.63 60.1346C112.705 60.525 113.448 62.2122 112.555 62.0137C111.662 61.8152 108.983 59.9427 108.459 58.9502C107.936 57.9577 107.791 53.3261 107.791 53.3261C107.791 53.3261 108.001 52.3402 108.819 53.3261Z" fill="#EBFAFF" stroke="#1D282E" stroke-linecap="round" stroke-linejoin="round"/>
<path d="M112.613 60.7303L109.635 58.3616" stroke="#1D282E" stroke-linecap="round" stroke-linejoin="round"/>
<path d="M112.913 61.6168C112.913 61.6168 110.234 60.042 109.71 59.4465" stroke="#1D282E" stroke-linecap="round" stroke-linejoin="round"/>
<path d="M110.454 57.2767L109.562 56.4827" stroke="#1D282E" stroke-linecap="round" stroke-linejoin="round"/>
<path d="M128.827 92.9402H126.751V148.877H128.827V92.9402Z" fill="#EBFAFF" stroke="#1D282E" stroke-linecap="round" stroke-linejoin="round"/>
<path d="M223.557 92.9402H221.481V148.877H223.557V92.9402Z" fill="#EBFAFF" stroke="#1D282E" stroke-linecap="round" stroke-linejoin="round"/>
<path d="M226.475 89.6387H125.016V94.8327H226.475V89.6387Z" fill="#EBFAFF" stroke="#1D282E" stroke-linecap="round" stroke-linejoin="round"/>
<path d="M22.4643 92.9402H20.3892V148.877H22.4643V92.9402Z" fill="#EBFAFF" stroke="#1D282E" stroke-linecap="round" stroke-linejoin="round"/>
<path d="M117.189 92.9402H115.114V148.877H117.189V92.9402Z" fill="#EBFAFF" stroke="#1D282E" stroke-linecap="round" stroke-linejoin="round"/>
<path d="M120.112 89.6387H18.6528V94.8327H120.112V89.6387Z" fill="#EBFAFF" stroke="#1D282E" stroke-linecap="round" stroke-linejoin="round"/>
<path d="M192.954 102.746L197.723 143.273L200.277 143.485L200.88 103.739L192.954 102.746Z" fill="#E8E8E8" stroke="#1D282E" stroke-linecap="round" stroke-linejoin="round"/>
<path d="M197.723 143.273V147.786C197.723 147.966 197.775 148.139 197.867 148.272C197.96 148.404 198.086 148.485 198.221 148.5L200.092 148.639C200.171 148.645 200.249 148.628 200.322 148.589C200.395 148.55 200.461 148.49 200.515 148.413C200.569 148.337 200.609 148.246 200.633 148.147C200.658 148.047 200.665 147.942 200.656 147.839L200.277 143.485L197.723 143.273Z" fill="#EBFAFF" stroke="#1D282E" stroke-linecap="round" stroke-linejoin="round"/>
<path d="M211.584 102.845L206.291 143.233L203.732 143.365L203.647 103.613L211.584 102.845Z" fill="#E8E8E8" stroke="#1D282E" stroke-linecap="round" stroke-linejoin="round"/>
<path d="M206.291 143.233L206.231 147.739C206.229 147.923 206.173 148.098 206.075 148.229C205.978 148.36 205.846 148.435 205.707 148.44L203.832 148.526C203.753 148.529 203.676 148.51 203.604 148.469C203.532 148.427 203.467 148.366 203.415 148.289C203.363 148.211 203.324 148.119 203.301 148.02C203.278 147.92 203.272 147.816 203.283 147.713L203.732 143.365L206.291 143.233Z" fill="#EBFAFF" stroke="#1D282E" stroke-linecap="round" stroke-linejoin="round"/>
<path d="M191.446 63.5823C191.446 63.5823 183.465 84.0938 183.246 85.8406C183.026 87.5874 184.333 90.1745 186.618 89.8834C188.902 89.5923 194.854 89.4533 194.854 89.4533L194.963 86.7074L188.104 85.5561L192.24 81.2222L191.446 63.5823Z" fill="#F5DE8B" stroke="#1D282E" stroke-linecap="round" stroke-linejoin="round"/>
<path d="M188.104 85.5559L187.271 87.7196" stroke="#1D282E" stroke-linecap="round" stroke-linejoin="round"/>
<path d="M212.822 64.0256C212.822 64.0256 220.953 84.1071 221.172 85.8605C221.392 87.6139 220.085 90.1944 217.8 89.9033C215.515 89.6121 210.173 89.4732 210.173 89.4732L210.063 86.681L213.774 85.5297L211.175 81.1429L212.822 64.0256Z" fill="#F5DE8B" stroke="#1D282E" stroke-linecap="round" stroke-linejoin="round"/>
<path d="M213.774 85.5559L217.147 87.7196" stroke="#1D282E" stroke-linecap="round" stroke-linejoin="round"/>
<path d="M199.039 58.1764L193.801 61.8553C191.182 63.6947 191.606 62.6625 191.451 63.5822C191.297 64.5019 192.334 96.3808 192.334 96.3808C192.334 96.3808 194.33 98.9613 199.577 99.6495C207.429 100.668 210.816 97.3998 210.816 97.3998C210.816 97.3998 212.812 65.1504 212.812 64.0255C212.812 62.9007 209.569 60.7172 207.494 59.3939C205.419 58.0706 203.114 56.9523 199.039 58.1764Z" fill="#F5DE8B" stroke="#1D282E" stroke-linecap="round" stroke-linejoin="round"/>
<path d="M201.832 36.3946C201.832 36.3946 198.435 38.3796 197.343 41.6151C196.25 44.8507 198.021 52.4201 197.612 54.3985C197.203 56.3768 195.308 56.1982 195.308 56.1982C195.308 56.1982 196.121 62.3252 200.735 63.0464C205.349 63.7676 207.39 62.8611 209.29 60.1616C211.191 57.462 210.787 57.462 210.787 57.462C210.787 57.462 209.974 57.462 209.564 54.3985C209.155 51.335 209.699 42.6936 207.664 38.9155C205.629 35.1374 202.531 35.283 201.832 36.3946Z" fill="#1D282E" stroke="#1D282E" stroke-linecap="round" stroke-linejoin="round"/>
<path d="M192.329 96.3809C192.329 96.3809 191.641 106.59 191.87 107.92C192.1 109.25 194.489 111.394 199.353 111.599C204.216 111.804 210.287 112.109 211.754 109.76C213.22 107.411 210.826 97.3998 210.826 97.3998C210.826 97.3998 197.876 98.829 192.329 96.3809Z" fill="#E8E8E8" stroke="#1D282E" stroke-linecap="round" stroke-linejoin="round"/>
<path d="M202.075 57.9847C202.075 57.9847 202.19 56.926 204.569 57.8325" stroke="#1D282E" stroke-linecap="round" stroke-linejoin="round"/>
<path d="M192.219 148.262C192.148 148.255 192.078 148.23 192.014 148.187C191.951 148.144 191.894 148.085 191.847 148.013C191.801 147.941 191.766 147.858 191.744 147.767C191.722 147.677 191.714 147.582 191.72 147.488L193.302 108.866L195.117 109.058L192.793 147.607C192.781 147.794 192.715 147.968 192.607 148.091C192.5 148.213 192.36 148.275 192.219 148.262V148.262Z" fill="#1D282E" stroke="#1D282E" stroke-linecap="round" stroke-linejoin="round"/>
<path d="M211.799 148.262C211.943 148.247 212.076 148.157 212.169 148.012C212.263 147.866 212.309 147.678 212.298 147.488L210.717 108.866L208.901 109.058L211.221 147.607C211.233 147.795 211.301 147.968 211.409 148.091C211.517 148.213 211.657 148.275 211.799 148.262V148.262Z" fill="#1D282E" stroke="#1D282E" stroke-linecap="round" stroke-linejoin="round"/>
<path d="M213.66 78.4632C209.598 79.241 205.499 79.6412 201.394 79.6608C197.553 79.6045 193.72 79.2044 189.921 78.4632C189.776 78.4328 189.629 78.4481 189.489 78.5077C189.35 78.5674 189.224 78.6697 189.12 78.8064C189.017 78.9431 188.939 79.1104 188.894 79.2945C188.848 79.4786 188.836 79.6744 188.858 79.866C189.447 84.749 191.118 98.7961 191.118 101.482C191.118 104.751 190.27 107.821 190.27 109.25C190.27 110.68 190.734 111.804 191.502 112.208C191.861 112.4 195.897 112.413 201.354 112.373C207.669 112.413 211.71 112.373 212.064 112.208C212.832 111.804 213.296 110.68 213.296 109.25C213.296 107.821 212.448 104.751 212.448 101.482C212.448 98.7961 214.119 84.7424 214.713 79.866C214.736 79.6754 214.725 79.4804 214.68 79.2968C214.635 79.1131 214.558 78.9461 214.456 78.8094C214.353 78.6726 214.228 78.57 214.089 78.5098C213.951 78.4497 213.804 78.4337 213.66 78.4632ZM209.71 108.39C209.435 108.529 206.322 108.542 201.454 108.509C197.248 108.542 194.136 108.509 193.861 108.39C193.549 108.185 193.291 107.858 193.122 107.454C192.953 107.05 192.88 106.587 192.914 106.127C192.914 105.036 193.562 102.693 193.562 100.172C193.562 99.5901 193.457 98.2933 193.298 96.6524L194.839 98.8689C195.05 99.1694 195.306 99.409 195.59 99.5729C195.874 99.7368 196.18 99.8215 196.49 99.8217H207.066C207.653 99.8221 208.217 99.5182 208.637 98.9748L210.248 96.8905C210.099 98.419 210.004 99.6166 210.004 100.199C210.004 102.693 210.657 105.036 210.657 106.154C210.686 106.61 210.612 107.067 210.443 107.465C210.274 107.864 210.018 108.186 209.71 108.39ZM211.75 83.7036C211.49 85.8209 210.962 90.1945 210.553 93.9528L209.016 95.2165C208.155 95.911 207.166 96.2772 206.158 96.2752H197.543C196.564 96.2753 195.603 95.928 194.759 95.2695L193.008 93.9065C192.604 90.1548 192.08 85.8077 191.821 83.7036C191.805 83.5567 191.815 83.4067 191.85 83.2659C191.886 83.1251 191.946 82.9973 192.026 82.8929C192.105 82.7886 192.202 82.7106 192.309 82.6652C192.415 82.6198 192.529 82.6083 192.639 82.6317C195.569 83.1983 198.523 83.5033 201.484 83.5448C204.655 83.5331 207.822 83.228 210.962 82.6317C211.07 82.6138 211.18 82.6294 211.283 82.6773C211.387 82.7252 211.48 82.8042 211.556 82.908C211.633 83.0118 211.69 83.1377 211.723 83.2757C211.757 83.4137 211.766 83.5602 211.75 83.7036V83.7036Z" fill="#1D282E" stroke="#1D282E" stroke-linecap="round" stroke-linejoin="round"/>
<path d="M153.285 66.5131V61.0015H159.216V66.9234L153.285 66.5131Z" fill="#EBFAFF" stroke="#1D282E" stroke-linecap="round" stroke-linejoin="round"/>
<path d="M150.361 53.9548C150.361 53.9548 149.433 53.6439 149.433 55.5891C149.433 57.5344 150.65 58.8908 151.149 58.7519C151.648 58.6129 150.92 54.9738 150.84 54.2592C150.76 53.5446 150.361 53.9548 150.361 53.9548Z" fill="#EBFAFF" stroke="#1D282E" stroke-linecap="round" stroke-linejoin="round"/>
<path d="M161.915 53.9548C161.915 53.9548 162.838 53.6439 162.838 55.5891C162.838 57.5344 161.626 58.8908 161.127 58.7519C160.628 58.6129 161.357 54.9738 161.431 54.2592C161.506 53.5446 161.915 53.9548 161.915 53.9548Z" fill="#EBFAFF" stroke="#1D282E" stroke-linecap="round" stroke-linejoin="round"/>
<path d="M161.935 46.2602C161.935 46.2602 162.513 45.8764 161.865 44.0502C161.692 43.5331 161.433 43.0745 161.107 42.709C160.781 42.3435 160.397 42.0804 159.984 41.9395C159.984 41.9395 160.483 41.5558 160.483 41.172C160.483 40.7882 159.835 40.6956 157.879 41.4631C157.35 41.6151 156.871 41.987 156.512 42.5249C156.153 43.0628 155.933 43.7386 155.884 44.4538C155.847 44.4255 155.809 44.4012 155.769 44.3811C155.295 44.0767 153.459 42.9916 152.581 43.5738C151.584 44.2355 152.726 44.0502 152.726 44.0502C151.575 44.2994 150.54 45.1233 149.833 46.3528C148.75 48.3378 149.544 48.5628 149.763 48.5628C149.983 48.5628 150.197 47.696 150.197 47.696V49.5222C150.197 49.5222 150.222 49.681 150.267 49.9324C149.963 52.6386 150.501 55.7021 150.801 57.6276C151.185 60.0823 152.726 62.4312 153.883 62.9209C155.041 63.4105 158.578 62.9209 158.578 62.9209C159.459 61.7435 160.212 60.407 160.812 58.9509C161.455 57.1503 161.795 55.1864 161.81 53.1944C162.204 52.1009 162.436 50.9171 162.493 49.7074C162.658 47.2196 161.935 46.2602 161.935 46.2602Z" fill="#1D282E" stroke="#1D282E" stroke-linecap="round" stroke-linejoin="round"/>
<path d="M160.064 56.6482C160.064 56.6482 156.796 54.3125 153.579 56.1387C151.718 57.1907 150.346 59.8109 150.346 59.8109C151.966 59.1694 153.644 58.8265 155.335 58.792C157.42 58.8538 159.501 59.0569 161.57 59.4007C161.2 58.3677 160.69 57.4345 160.064 56.6482Z" fill="#F5DE8B" stroke="#1D282E" stroke-linecap="round" stroke-linejoin="round"/>
<path d="M143.199 66.3479C143.199 66.3479 134.718 84.107 134.499 85.8405C134.279 87.5741 135.586 90.1744 137.871 89.8833C140.156 89.5921 148.646 89.4532 148.646 89.4532L148.756 86.7073L141.902 85.556L146.037 81.2221L143.199 66.3479Z" fill="#F5DE8B" stroke="#1D282E" stroke-linecap="round" stroke-linejoin="round"/>
<path d="M141.901 85.5564L138.524 87.72" stroke="#1D282E" stroke-linecap="round" stroke-linejoin="round"/>
<path d="M169.303 65.6335C169.303 65.6335 177.898 84.1072 178.113 85.8407C178.327 87.5743 177.025 90.1746 174.741 89.8835C172.456 89.5924 163.966 89.4534 163.966 89.4534L163.856 86.7075L170.715 85.5562L166.58 81.2223L169.303 65.6335Z" fill="#F5DE8B" stroke="#1D282E" stroke-linecap="round" stroke-linejoin="round"/>
<path d="M170.715 85.5564L174.088 87.72" stroke="#1D282E" stroke-linecap="round" stroke-linejoin="round"/>
<path d="M152.826 58.1763L147.588 61.8551C144.969 63.6945 143.353 65.4281 143.199 66.3478C143.044 67.2675 146.127 96.3807 146.127 96.3807C146.127 96.3807 148.122 98.9612 153.365 99.6493C161.217 100.668 164.604 97.3996 164.604 97.3996C164.604 97.3996 169.303 66.758 169.303 65.6398C169.303 64.5216 163.372 60.7369 161.296 59.4069C159.221 58.077 156.907 56.9522 152.826 58.1763Z" fill="#F5DE8B" stroke="#1D282E" stroke-linecap="round" stroke-linejoin="round"/>
<path d="M141.657 104.857L150.82 143.703L153.365 143.293L149.588 103.937L141.657 104.857Z" fill="#EBFAFF" stroke="#1D282E" stroke-linecap="round" stroke-linejoin="round"/>
<path d="M150.821 143.703L151.424 148.143C151.449 148.323 151.525 148.484 151.636 148.592C151.747 148.701 151.886 148.748 152.023 148.725L153.884 148.407C153.962 148.395 154.037 148.359 154.104 148.304C154.17 148.248 154.227 148.174 154.27 148.087C154.313 147.999 154.341 147.9 154.351 147.796C154.362 147.693 154.356 147.587 154.333 147.488L153.365 143.293L150.821 143.703Z" fill="#EBFAFF" stroke="#1D282E" stroke-linecap="round" stroke-linejoin="round"/>
<path d="M169.911 104.857L160.748 143.703L158.204 143.293L161.98 103.937L169.911 104.857Z" fill="#EBFAFF" stroke="#1D282E" stroke-linecap="round" stroke-linejoin="round"/>
<path d="M160.748 143.703L160.129 148.143C160.105 148.323 160.029 148.484 159.918 148.592C159.806 148.701 159.668 148.748 159.531 148.725L157.67 148.407C157.592 148.395 157.517 148.359 157.45 148.304C157.383 148.248 157.327 148.174 157.284 148.087C157.241 147.999 157.213 147.9 157.202 147.796C157.192 147.693 157.198 147.587 157.221 147.488L158.189 143.293L160.748 143.703Z" fill="#EBFAFF" stroke="#1D282E" stroke-linecap="round" stroke-linejoin="round"/>
<path d="M153.979 100.258C153.979 100.258 145.589 96.7847 144.047 97.8102C142.506 98.8358 140.964 101.482 141.503 104.427C142.042 107.371 146.666 110.964 147.664 111.044C148.662 111.123 154.059 111.044 154.059 111.044L153.979 100.258Z" fill="#EBFAFF" stroke="#1D282E" stroke-linecap="round" stroke-linejoin="round"/>
<path d="M158.104 100.258C158.104 100.258 166.499 96.7847 168.041 97.8102C169.582 98.8358 171.118 101.482 170.58 104.427C170.041 107.371 165.422 110.964 164.419 111.044C163.416 111.123 158.029 111.044 158.029 111.044L158.104 100.258Z" fill="#EBFAFF" stroke="#1D282E" stroke-linecap="round" stroke-linejoin="round"/>
<path d="M146.127 96.3809C146.127 96.3809 145.433 106.59 145.663 107.92C145.892 109.25 148.282 111.394 153.145 111.599C158.009 111.804 164.08 112.109 165.547 109.76C167.013 107.411 164.619 97.3998 164.619 97.3998C164.619 97.3998 151.649 98.829 146.127 96.3809Z" fill="#EBFAFF" stroke="#1D282E" stroke-linecap="round" stroke-linejoin="round"/>
<path d="M146.012 148.262C145.868 148.247 145.735 148.157 145.642 148.012C145.548 147.866 145.502 147.678 145.513 147.488L147.094 108.866L148.91 109.058L146.59 147.607C146.578 147.795 146.51 147.968 146.402 148.091C146.294 148.213 146.154 148.275 146.012 148.262V148.262Z" fill="#1D282E" stroke="#1D282E" stroke-linecap="round" stroke-linejoin="round"/>
<path d="M165.616 148.262C165.759 148.247 165.892 148.157 165.986 148.012C166.079 147.866 166.125 147.678 166.114 147.488L164.533 108.866L162.717 109.058L165.037 147.607C165.05 147.795 165.117 147.968 165.225 148.091C165.334 148.213 165.474 148.275 165.616 148.262V148.262Z" fill="#1D282E" stroke="#1D282E" stroke-linecap="round" stroke-linejoin="round"/>
<path d="M167.433 78.4632C163.37 79.241 159.272 79.6412 155.167 79.6608C151.326 79.604 147.493 79.2039 143.693 78.4632C143.549 78.4328 143.401 78.4481 143.262 78.5077C143.123 78.5674 142.997 78.6697 142.893 78.8064C142.79 78.9431 142.712 79.1104 142.666 79.2945C142.621 79.4786 142.609 79.6744 142.631 79.866C143.225 84.749 144.896 98.7961 144.896 101.482C144.896 104.751 144.048 107.821 144.048 109.25C144.048 110.68 144.507 111.804 145.28 112.208C145.634 112.4 149.67 112.413 155.127 112.373C161.447 112.413 165.483 112.373 165.837 112.208C166.61 111.804 167.069 110.68 167.069 109.25C167.069 107.821 166.226 104.751 166.226 101.482C166.226 98.7961 167.897 84.7424 168.486 79.866C168.509 79.6754 168.497 79.4804 168.453 79.2968C168.408 79.1131 168.331 78.9461 168.229 78.8094C168.126 78.6726 168 78.57 167.862 78.5098C167.724 78.4497 167.577 78.4337 167.433 78.4632ZM163.482 108.39C163.208 108.529 160.095 108.542 155.227 108.509C151.021 108.542 147.909 108.509 147.634 108.39C147.322 108.185 147.064 107.858 146.895 107.454C146.726 107.05 146.653 106.587 146.686 106.127C146.686 105.036 147.34 102.693 147.34 100.172C147.34 99.5901 147.235 98.2933 147.071 96.6524L148.617 98.8689C148.828 99.1703 149.083 99.4105 149.367 99.5745C149.652 99.7385 149.958 99.8227 150.268 99.8217H160.844C161.43 99.82 161.994 99.5164 162.415 98.9748L164.021 96.8905C163.877 98.419 163.782 99.6166 163.782 100.199C163.782 102.693 164.43 105.036 164.43 106.154C164.459 106.61 164.385 107.067 164.216 107.465C164.047 107.864 163.791 108.186 163.482 108.39V108.39ZM165.523 83.7036C165.263 85.8209 164.735 90.1945 164.33 93.9528L162.764 95.2165C161.904 95.9098 160.917 96.276 159.911 96.2752H151.321C150.34 96.2765 149.377 95.9292 148.532 95.2695L146.786 93.9065C146.377 90.1548 145.853 85.8077 145.594 83.7036C145.578 83.5567 145.588 83.4067 145.623 83.2659C145.659 83.1251 145.719 82.9973 145.798 82.8929C145.878 82.7886 145.975 82.7106 146.082 82.6652C146.188 82.6198 146.302 82.6083 146.412 82.6317C149.342 83.1983 152.296 83.5033 155.257 83.5448C158.42 83.5319 161.578 83.2267 164.71 82.6317C164.82 82.608 164.933 82.6193 165.039 82.6647C165.146 82.7101 165.243 82.7882 165.322 82.8928C165.401 82.9974 165.461 83.1253 165.496 83.2662C165.531 83.4072 165.54 83.557 165.523 83.7036V83.7036Z" fill="#1D282E" stroke="#1D282E" stroke-linecap="round" stroke-linejoin="round"/>
<path d="M147.349 78.655L150.307 93.2712L152.611 92.8345L150.142 79.3101L147.349 78.655Z" fill="#E8E8E8" stroke="#1D282E" stroke-linecap="round" stroke-linejoin="round"/>
<path d="M159.025 92.398L161.165 79.3102L164.129 78.8669L161.33 93.2713L159.025 92.398Z" fill="#E8E8E8" stroke="#1D282E" stroke-linecap="round" stroke-linejoin="round"/>
<path d="M144.575 102.475L148.501 113.346V118.15L144.221 106.365L144.575 102.475Z" fill="#E8E8E8" stroke="#1D282E" stroke-linecap="round" stroke-linejoin="round"/>
<path d="M166.601 102.475L162.68 113.346V118.15L166.955 106.365L166.601 102.475Z" fill="#E8E8E8" stroke="#1D282E" stroke-linecap="round" stroke-linejoin="round"/>
<path d="M159.755 89.5658C159.755 89.5658 152.682 88.9042 150.542 89.7842C148.402 90.6642 147.254 92.8344 147.419 96.328C147.584 99.8216 146.102 113.346 146.267 116.84C146.431 120.333 147.419 122.517 151.694 123.608C155.969 124.7 160.414 124.27 162.883 122.947C165.352 121.623 166.53 116.634 165.018 111.381C163.507 106.127 163.886 98.0483 163.227 94.1247C162.569 90.201 160.908 89.7842 159.755 89.5658Z" fill="#F5DE8B" stroke="#1D282E" stroke-linecap="round" stroke-linejoin="round"/>
<path d="M163.746 115.874C163.746 115.953 163.631 118.037 163.616 118.117C162.459 123.946 156.258 123.02 152.821 122.259C151.11 121.882 148.546 120.737 147.882 118.289C147.159 115.642 148.097 112.334 148.456 109.654C148.676 107.993 148.8 102.905 150.217 102.058C151.634 101.211 160.234 99.9872 161.536 103.434C162.992 107.312 163.227 111.388 163.746 115.874Z" fill="#F5DE8B" stroke="#1D282E" stroke-linecap="round" stroke-linejoin="round"/>
<path d="M157.242 93.6086H153.99V96.0237H157.242V93.6086Z" fill="#1D282E" stroke="#1D282E" stroke-linecap="round" stroke-linejoin="round"/>
<path d="M148.916 109.839H162.968C163 110.517 162.847 111.187 162.536 111.727C162.225 112.267 161.778 112.64 161.277 112.777C159.177 113.372 156.862 113.26 154.732 113.267C152.822 113.26 148.696 113.637 148.916 109.839Z" fill="#1D282E" stroke="#1D282E" stroke-linecap="round" stroke-linejoin="round"/>
<path d="M86.5854 102.984L91.3544 143.518L93.9084 143.723L94.512 103.983L86.5854 102.984Z" fill="#F5DE8B" stroke="#1D282E" stroke-linecap="round" stroke-linejoin="round"/>
<path d="M91.3555 143.518V148.024C91.355 148.205 91.4061 148.38 91.4985 148.514C91.591 148.647 91.718 148.73 91.8543 148.745L93.73 148.877C93.8083 148.882 93.8865 148.864 93.9592 148.824C94.0318 148.785 94.0971 148.725 94.1507 148.649C94.2042 148.573 94.2447 148.482 94.2694 148.384C94.2941 148.285 94.3024 148.18 94.2936 148.077L93.9145 143.723L91.3555 143.518Z" fill="#EBFAFF" stroke="#1D282E" stroke-linecap="round" stroke-linejoin="round"/>
<path d="M105.223 103.084L99.9251 143.472L97.371 143.604L97.2812 103.858L105.223 103.084Z" fill="#F5DE8B" stroke="#1D282E" stroke-linecap="round" stroke-linejoin="round"/>
<path d="M99.9252 143.471L99.8653 147.977C99.8633 148.156 99.8111 148.328 99.7189 148.459C99.6267 148.59 99.5011 148.671 99.3665 148.685L97.4909 148.765C97.4123 148.768 97.3343 148.748 97.2621 148.707C97.1899 148.666 97.1253 148.604 97.0727 148.527C97.0201 148.45 96.9807 148.358 96.9573 148.259C96.9339 148.159 96.927 148.054 96.9371 147.951L97.3861 143.604L99.9252 143.471Z" fill="#EBFAFF" stroke="#1D282E" stroke-linecap="round" stroke-linejoin="round"/>
<path d="M85.0837 63.8206C85.0837 63.8206 77.1023 84.3321 76.8778 86.0789C76.6533 87.8257 77.9702 90.4128 80.2549 90.1217C82.5396 89.8305 88.4858 89.6916 88.4858 89.6916L88.5955 86.9457L81.7415 85.7944L85.8769 81.4605L85.0837 63.8206Z" fill="#EBFAFF" stroke="#1D282E" stroke-linecap="round" stroke-linejoin="round"/>
<path d="M81.7418 85.7942L80.9087 87.9578" stroke="#1D282E" stroke-linecap="round" stroke-linejoin="round"/>
<path d="M106.549 63.3777C106.549 63.3777 114.59 84.3524 114.805 86.0793C115.019 87.8063 113.717 90.4132 111.433 90.1221C109.148 89.831 103.81 89.692 103.81 89.692L103.701 86.9461L107.407 85.7948L105.068 81.4874L106.549 63.3777Z" fill="#EBFAFF" stroke="#1D282E" stroke-linecap="round" stroke-linejoin="round"/>
<path d="M107.408 85.7942L110.78 87.9578" stroke="#1D282E" stroke-linecap="round" stroke-linejoin="round"/>
<path d="M92.6665 58.4218L87.4287 62.094C84.8098 63.9334 85.2338 62.9012 85.0842 63.821C84.9345 64.7407 85.9671 96.6064 85.9671 96.6064C85.9671 96.6064 87.9625 99.1935 93.2053 99.875C101.062 100.894 104.449 97.6253 104.449 97.6253C104.449 97.6253 106.445 65.3759 106.445 64.251C106.445 63.1262 103.202 60.9427 101.122 59.6194C99.0417 58.2961 96.7471 57.1911 92.6665 58.4218Z" fill="#EBFAFF" stroke="#1D282E" stroke-linecap="round" stroke-linejoin="round"/>
<path d="M85.9665 96.6062C85.9665 96.6062 85.2731 106.822 85.5026 108.146C85.7321 109.469 88.1215 111.619 92.9852 111.824C97.8489 112.03 103.92 112.334 105.381 109.985C106.843 107.636 104.459 97.6252 104.459 97.6252C104.459 97.6252 91.5087 99.0676 85.9665 96.6062Z" fill="#F5DE8B" stroke="#1D282E" stroke-linecap="round" stroke-linejoin="round"/>
<path d="M96.2779 38.4193C96.2779 38.4193 93.7837 36.4343 91.1498 40.2323C88.5159 44.0302 91.2645 51.5732 91.6037 53.3861C91.9429 55.1991 87.0493 65.5078 87.0493 70.1394C87.0493 74.7711 91.2895 79.4027 97.9939 78.483C104.698 77.5633 105.516 72.8854 104.604 67.2943C103.691 61.7032 102.663 55.8012 102.663 53.3994C102.663 50.9975 104.259 45.5388 102.778 40.2455C101.296 34.9522 97.6497 36.4542 96.2779 38.4193Z" fill="#1D282E" stroke="#1D282E" stroke-linecap="round" stroke-linejoin="round"/>
<path d="M92.6371 54.2925L95.7149 58.2227C95.7149 58.2227 92.5224 68.3528 92.1782 71.0722C91.834 73.7917 93.6747 76.3656 96.1689 76.0612C98.6631 75.7568 100.274 72.8852 100.16 70.4701C100.045 68.0551 98.2191 58.0706 98.2191 58.0706C99.7945 56.9794 101.13 55.3654 102.095 53.386" stroke="#E8E8E8" stroke-linecap="round" stroke-linejoin="round"/>
<path d="M95.7148 58.2295C95.7148 58.2295 95.8296 57.1709 98.209 58.0773" stroke="#1D282E" stroke-linecap="round" stroke-linejoin="round"/>
<path d="M85.8531 148.5C85.7106 148.485 85.5783 148.396 85.4849 148.252C85.3916 148.109 85.3446 147.922 85.3543 147.733L86.9356 109.105L88.7514 109.303L86.4318 147.845C86.4203 148.034 86.353 148.208 86.2445 148.331C86.136 148.454 85.9953 148.515 85.8531 148.5V148.5Z" fill="#1D282E" stroke="#1D282E" stroke-linecap="round" stroke-linejoin="round"/>
<path d="M105.432 148.5C105.503 148.493 105.572 148.468 105.636 148.426C105.699 148.384 105.756 148.325 105.802 148.254C105.848 148.183 105.884 148.1 105.906 148.01C105.928 147.921 105.937 147.827 105.931 147.733L104.355 109.105L102.539 109.303L104.859 147.845C104.87 148.032 104.937 148.206 105.044 148.329C105.152 148.451 105.291 148.513 105.432 148.5V148.5Z" fill="#1D282E" stroke="#1D282E" stroke-linecap="round" stroke-linejoin="round"/>
<path d="M107.293 78.7015C103.232 79.479 99.1348 79.8792 95.0316 79.8991C91.1911 79.8455 87.3578 79.4454 83.5583 78.7015C83.4139 78.672 83.2662 78.6881 83.1274 78.7487C82.9886 78.8092 82.8625 78.9123 82.7595 79.0496C82.6564 79.187 82.5792 79.3547 82.5343 79.5391C82.4893 79.7235 82.4778 79.9194 82.5007 80.1108C83.0894 84.9873 84.7605 99.0344 84.7605 101.727C84.7605 104.996 83.9125 108.059 83.9125 109.489C83.9125 110.918 84.3764 112.043 85.1446 112.453C85.4988 112.638 89.5344 112.651 94.9917 112.612C101.312 112.651 105.348 112.612 105.707 112.453C106.475 112.043 106.939 110.918 106.939 109.489C106.939 108.059 106.091 104.996 106.091 101.727C106.091 99.0344 107.762 84.9873 108.351 80.1108C108.375 79.9191 108.364 79.7226 108.319 79.5375C108.275 79.3524 108.198 79.1841 108.094 79.0463C107.991 78.9086 107.865 78.8055 107.725 78.7456C107.586 78.6856 107.438 78.6705 107.293 78.7015ZM103.342 108.628C103.068 108.774 99.9552 108.781 95.0865 108.754C90.8813 108.754 87.7685 108.754 87.4941 108.628C87.182 108.423 86.9243 108.097 86.755 107.692C86.5858 107.288 86.513 106.826 86.5463 106.366C86.5463 105.274 87.1998 102.938 87.1998 100.444C87.1998 99.8548 87.0951 98.558 86.9354 96.9237L88.4768 99.1336C88.6873 99.4359 88.9427 99.6772 89.2268 99.8423C89.511 100.007 89.8178 100.093 90.128 100.093H100.703C101.287 100.095 101.847 99.7929 102.265 99.2527L103.871 97.1751C103.726 98.6969 103.632 99.8945 103.632 100.483C103.632 102.978 104.285 105.314 104.285 106.405C104.313 106.858 104.238 107.312 104.07 107.708C103.902 108.104 103.648 108.424 103.342 108.628V108.628ZM105.383 83.9418C105.123 86.0591 104.599 90.4328 104.19 94.191L102.629 95.4548C101.768 96.1515 100.779 96.5201 99.7706 96.52H91.1806C90.1995 96.5193 89.2366 96.1697 88.392 95.5077L86.6461 94.1447C86.2371 90.3997 85.7133 86.0525 85.4589 83.9418C85.4415 83.7946 85.4507 83.644 85.4858 83.5025C85.5209 83.361 85.5809 83.2326 85.6609 83.1279C85.7408 83.0232 85.8383 82.9452 85.9455 82.9003C86.0526 82.8555 86.1662 82.845 86.277 82.8699C89.2046 83.439 92.1577 83.7463 95.1164 83.7897C98.2879 83.7724 101.455 83.4651 104.594 82.8699C104.703 82.852 104.813 82.8676 104.916 82.9155C105.019 82.9635 105.113 83.0424 105.189 83.1463C105.266 83.2501 105.323 83.3759 105.356 83.5139C105.39 83.652 105.399 83.7984 105.383 83.9418V83.9418Z" fill="#1D282E" stroke="#1D282E" stroke-linecap="round" stroke-linejoin="round"/>
<path d="M46.9233 57.8127V52.301H52.8496V58.2229L46.9233 57.8127Z" fill="#EBFAFF" stroke="#1D282E" stroke-linecap="round" stroke-linejoin="round"/>
<path d="M43.9951 45.2542C43.9951 45.2542 43.0723 44.9432 43.0723 46.8885C43.0723 48.8338 44.3044 50.1505 44.7633 50.0512C45.2223 49.952 44.5339 46.2731 44.459 45.5585C44.3842 44.8439 43.9951 45.2542 43.9951 45.2542Z" fill="#EBFAFF" stroke="#1D282E" stroke-linecap="round" stroke-linejoin="round"/>
<path d="M55.5479 45.2542C55.5479 45.2542 56.4758 44.9432 56.4758 46.8885C56.4758 48.8338 55.2436 50.1505 54.7797 50.0512C54.3158 49.952 55.0092 46.2731 55.089 45.5585C55.1688 44.8439 55.5479 45.2542 55.5479 45.2542Z" fill="#EBFAFF" stroke="#1D282E" stroke-linecap="round" stroke-linejoin="round"/>
<path d="M48.076 35.5476C48.076 35.5476 45.4571 36.0571 44.3796 39.1206C43.3021 42.1841 44.0753 46.4783 44.4594 48.9264C44.8435 51.3746 46.385 53.7301 47.5373 54.2197C48.6896 54.7094 52.2364 54.2197 52.2364 54.2197C53.1167 53.0405 53.8689 51.7043 54.4712 50.2498C55.5487 47.6957 55.7033 42.8921 55.2394 40.1395C54.7755 37.387 53.1592 34.6213 51.9271 34.4162C50.6949 34.211 49.5426 35.7395 49.5426 35.7395C49.0853 35.4522 48.5669 35.3844 48.076 35.5476V35.5476Z" fill="#1D282E" stroke="#1D282E" stroke-linecap="round" stroke-linejoin="round"/>
<path d="M53.6979 56.7936C53.6979 56.7936 49.2083 55.8739 47.213 56.2841C45.2176 56.6943 43.9805 59.9563 43.9805 59.9563C45.6003 59.3158 47.2788 58.9729 48.9689 58.9374C51.054 59.0002 53.1352 59.2056 55.2044 59.5527C54.8341 58.5182 54.3235 57.5828 53.6979 56.7936V56.7936Z" fill="#EBFAFF" stroke="#1D282E" stroke-linecap="round" stroke-linejoin="round"/>
<path d="M36.836 66.4939C36.836 66.4939 28.3507 84.2596 28.1362 86.0196C27.9217 87.7796 29.2237 90.3535 31.5084 90.0623C33.7931 89.7712 42.2834 89.6323 42.2834 89.6323L42.3881 86.8864L35.534 85.7351L39.6694 81.3879L36.836 66.4939Z" fill="#EBFAFF" stroke="#1D282E" stroke-linecap="round" stroke-linejoin="round"/>
<path d="M35.5343 85.7019L32.1621 87.8656" stroke="#1D282E" stroke-linecap="round" stroke-linejoin="round"/>
<path d="M62.9415 65.7791C62.9415 65.7791 71.5315 84.2593 71.751 85.9862C71.9705 87.7132 70.6635 90.3201 68.3739 90.029C66.0842 89.7379 57.6039 89.5989 57.6039 89.5989L57.4941 86.853L64.3532 85.7017L60.2128 81.3877L62.9415 65.7791Z" fill="#EBFAFF" stroke="#1D282E" stroke-linecap="round" stroke-linejoin="round"/>
<path d="M64.3481 85.7019L67.7253 87.8656" stroke="#1D282E" stroke-linecap="round" stroke-linejoin="round"/>
<path d="M46.459 58.3217L41.2212 62.0006C38.6072 63.84 36.986 65.5735 36.8363 66.4932C36.6867 67.413 39.7596 96.5261 39.7596 96.5261C39.7596 96.5261 41.7549 99.1066 46.9977 99.7948C54.8545 100.814 58.2416 97.5451 58.2416 97.5451C58.2416 97.5451 62.9407 66.9035 62.9407 65.7853C62.9407 64.6671 57.0095 60.8757 54.9293 59.5524C52.8491 58.2291 50.5395 57.0976 46.459 58.3217Z" fill="#EBFAFF" stroke="#1D282E" stroke-linecap="round" stroke-linejoin="round"/>
<path d="M35.2959 105.002L44.4596 143.848L46.9987 143.445L43.2275 104.083L35.2959 105.002Z" fill="#F5DE8B" stroke="#1D282E" stroke-linecap="round" stroke-linejoin="round"/>
<path d="M44.4595 143.849L45.0581 148.288C45.0837 148.469 45.1605 148.63 45.2727 148.739C45.3849 148.847 45.5241 148.894 45.6617 148.871L47.5224 148.553C47.6001 148.539 47.6746 148.503 47.7408 148.448C47.8069 148.392 47.8631 148.318 47.9054 148.23C47.9477 148.142 47.975 148.044 47.9855 147.941C47.9961 147.838 47.9895 147.733 47.9663 147.633L46.9986 143.445L44.4595 143.849Z" fill="#EBFAFF" stroke="#1D282E" stroke-linecap="round" stroke-linejoin="round"/>
<path d="M63.5446 105.002L54.3809 143.848L51.8418 143.445L55.613 104.083L63.5446 105.002Z" fill="#F5DE8B" stroke="#1D282E" stroke-linecap="round" stroke-linejoin="round"/>
<path d="M54.3771 143.849L53.7785 148.288C53.7529 148.469 53.6761 148.63 53.5639 148.739C53.4517 148.847 53.3125 148.894 53.1749 148.871L51.3142 148.553C51.2365 148.539 51.162 148.503 51.0958 148.448C51.0297 148.392 50.9735 148.318 50.9312 148.23C50.889 148.142 50.8616 148.044 50.8511 147.941C50.8405 147.838 50.8471 147.733 50.8703 147.633L51.838 143.445L54.3771 143.849Z" fill="#EBFAFF" stroke="#1D282E" stroke-linecap="round" stroke-linejoin="round"/>
<path d="M47.6177 100.404C47.6177 100.404 39.2222 96.9369 37.6808 97.9294C36.1394 98.9219 34.6029 101.608 35.1417 104.546C35.6804 107.484 40.2997 111.083 41.3024 111.163C42.305 111.242 47.6925 111.163 47.6925 111.163L47.6177 100.404Z" fill="#F5DE8B" stroke="#1D282E" stroke-linecap="round" stroke-linejoin="round"/>
<path d="M51.7414 100.404C51.7414 100.404 60.1319 96.9368 61.6734 97.9558C63.2148 98.9747 64.7562 101.635 64.2125 104.572C63.6687 107.51 59.0544 111.11 58.0518 111.189C57.0491 111.268 51.6616 111.189 51.6616 111.189L51.7414 100.404Z" fill="#F5DE8B" stroke="#1D282E" stroke-linecap="round" stroke-linejoin="round"/>
<path d="M39.7595 96.5266C39.7595 96.5266 39.0661 106.743 39.2956 108.066C39.525 109.389 41.9145 111.54 46.7782 111.745C51.6419 111.95 57.7128 112.254 59.1744 109.905C60.636 107.557 58.2515 97.5456 58.2515 97.5456C58.2515 97.5456 45.3066 98.9748 39.7595 96.5266Z" fill="#F5DE8B" stroke="#1D282E" stroke-linecap="round" stroke-linejoin="round"/>
<path d="M39.6508 148.408C39.58 148.401 39.5109 148.376 39.4474 148.333C39.384 148.291 39.3274 148.233 39.2811 148.161C39.2347 148.09 39.1995 148.007 39.1773 147.918C39.1551 147.828 39.1465 147.734 39.152 147.64L40.7283 109.012L42.5441 109.211L40.2295 147.753C40.218 147.941 40.1507 148.116 40.0422 148.239C39.9337 148.362 39.793 148.422 39.6508 148.408V148.408Z" fill="#1D282E" stroke="#1D282E" stroke-linecap="round" stroke-linejoin="round"/>
<path d="M59.2253 148.408C59.2961 148.401 59.3652 148.376 59.4287 148.333C59.4922 148.291 59.5487 148.233 59.595 148.161C59.6414 148.09 59.6767 148.007 59.6988 147.918C59.721 147.828 59.7296 147.734 59.7241 147.64L58.1478 109.012L56.332 109.211L58.6516 147.753C58.6631 147.94 58.7298 148.114 58.8371 148.236C58.9445 148.359 59.084 148.42 59.2253 148.408V148.408Z" fill="#1D282E" stroke="#1D282E" stroke-linecap="round" stroke-linejoin="round"/>
<path d="M61.0703 78.6087C57.0075 79.3865 52.9087 79.7866 48.8038 79.8063C44.9634 79.7499 41.1303 79.3498 37.3305 78.6087C37.1857 78.578 37.0375 78.5933 36.898 78.6533C36.7586 78.7132 36.6318 78.8162 36.5281 78.9537C36.4244 79.0912 36.3468 79.2594 36.3016 79.4444C36.2564 79.6294 36.2448 79.826 36.268 80.018C36.8566 84.8945 38.5277 98.9416 38.5277 101.635C38.5277 104.903 37.6797 107.967 37.6797 109.396C37.6797 110.825 38.1436 111.95 38.9118 112.36C39.271 112.545 43.3066 112.559 48.7639 112.519C55.0792 112.559 59.1199 112.519 59.474 112.36C60.2422 111.95 60.7062 110.825 60.7062 109.396C60.7062 107.967 59.8581 104.903 59.8581 101.635C59.8581 98.9416 61.5293 84.8879 62.1179 80.0114C62.1418 79.8212 62.1312 79.6263 62.0872 79.4425C62.0432 79.2588 61.9669 79.0916 61.8646 78.9547C61.7623 78.8177 61.637 78.7149 61.4989 78.6548C61.3608 78.5946 61.2139 78.5788 61.0703 78.6087ZM57.1195 108.516C56.8451 108.655 53.7324 108.668 48.8587 108.642C44.6535 108.642 41.5457 108.642 41.2713 108.516C40.9583 108.311 40.6995 107.985 40.5293 107.581C40.3592 107.177 40.2856 106.714 40.3185 106.253C40.3185 105.161 40.972 102.826 40.972 100.331C40.972 99.7422 40.8673 98.4453 40.7076 96.811L42.2491 99.021C42.4599 99.3226 42.7153 99.5634 42.9994 99.7285C43.2835 99.8936 43.5901 99.9793 43.9002 99.9804H54.4756C55.0638 99.9819 55.6286 99.6751 56.047 99.1268L57.6582 97.0492C57.5086 98.571 57.4138 99.7687 57.4138 100.358C57.4138 102.852 58.0673 105.188 58.0673 106.279C58.0964 106.735 58.0217 107.192 57.8527 107.591C57.6837 107.99 57.4282 108.312 57.1195 108.516ZM59.1548 83.8292C58.9004 85.9465 58.3716 90.3201 57.9625 94.0783L56.4012 95.3421C55.5398 96.0365 54.5508 96.4028 53.5428 96.4008H44.9528C43.9739 96.4009 43.0128 96.0536 42.1692 95.3951L40.4083 94.0519C40.0043 90.3003 39.4805 85.9597 39.2211 83.849C39.2048 83.7021 39.2148 83.5522 39.2504 83.4113C39.2859 83.2705 39.3459 83.1427 39.4256 83.0384C39.5052 82.934 39.6023 82.856 39.7089 82.8106C39.8155 82.7652 39.9286 82.7538 40.0392 82.7771C42.9702 83.3443 45.9267 83.6493 48.8886 83.6902C52.0601 83.6783 55.2271 83.3732 58.3666 82.7771C58.4751 82.7592 58.5852 82.7748 58.6884 82.8227C58.7916 82.8707 58.885 82.9496 58.9614 83.0535C59.0377 83.1573 59.0949 83.2831 59.1284 83.4212C59.162 83.5592 59.171 83.7056 59.1548 83.849V83.8292Z" fill="#1D282E" stroke="#1D282E" stroke-linecap="round" stroke-linejoin="round"/>
<path d="M0.5 148.877H234.456" stroke="#1D282E" stroke-linecap="round" stroke-linejoin="round"/>
</svg>
